<svg enable-background="new 0 0 538.49764 482.25827" height="482.25827" version="1.1" viewbox="0 0 538.49764 482.25827" width="538.49764" xmlns="http://www.w3.org/2000/svg" xmlns:xlink="http://www.w3.org/1999/xlink"><g id="location_map"><g id="BHAKTAPUR_palika"><clippath id="SVG_CP_1"><path d="M5.90356,476.93461L5.90356,5.76008L532.61627,5.76008L532.61627,476.93461L5.90356,476.93461z"></path></clippath><path clip-path="url(#SVG_CP_1)" d="M279.48315,267.84371L279.19517,268.85172L278.90719,269.42773L278.61921,270.00374L278.04326,269.28373L276.74735,268.13171L275.73943,267.4117L275.16347,266.8357L274.44353,266.11569L272.1397,264.81967L271.85172,264.67567L268.97193,263.37965L267.67603,263.09164L266.95608,263.09164L265.66018,262.94764L264.65226,262.94764L263.78832,263.09164L258.7487,262.94764L257.59678,262.80364L255.29295,262.65964L254.28503,262.80364L252.98913,262.94764L251.69322,263.23565L250.10934,264.09966L249.3894,264.24366L247.66152,265.10767L247.51753,265.25167L246.94158,265.53968L246.50961,265.68368L245.50169,266.11569L244.63775,266.40369L243.62982,266.25969L243.05387,266.25969L241.03802,266.11569L240.03009,265.97168L239.02217,265.82768L237.58228,265.68368L237.2943,265.53968L235.85441,265.25167L234.70249,265.25167L233.98254,265.10767L233.40659,265.10767L232.97462,265.10767L232.25467,265.10767L230.95877,264.96367L230.23882,264.96367L228.22297,264.67567L226.63909,264.67567L224.91122,264.38766L223.03936,264.38766L220.87952,263.95566L220.01559,263.95566L219.29564,263.66765L215.40793,263.23565L211.95219,262.37163L211.52022,262.22763L210.65628,261.79563L210.22432,261.65162L209.0724,261.36362L206.91256,260.35561L205.32868,259.34759L203.45682,258.33958L202.30491,257.90757L202.16092,257.76357L201.72895,257.47557L199.28113,256.32355L198.84917,256.32355L197.26528,255.45954L196.40135,255.02753L195.82539,254.73953L192.94561,253.29951L191.07375,252.00349L190.06582,251.42748L189.92183,251.13948L188.04997,249.55546L187.04205,248.83545L185.74614,248.11544L183.87428,247.25143L183.01035,246.96342L179.26663,246.24341L176.81881,245.5234L175.37892,245.2354L174.94695,245.0914L173.79503,244.80339L171.92317,244.22738L170.91525,243.79538L170.1953,243.79538L163.85978,242.21136L162.56387,241.77935L163.42781,240.33933L165.44366,238.4673L166.30759,237.45929L167.17153,236.45128L167.74749,236.01927L169.76334,234.29125L170.77126,232.99523L172.06716,232.27522L174.80296,231.2672L175.95487,230.8352L176.53083,230.8352L177.68274,230.9792L178.40269,231.2672L179.98657,231.69921L180.9945,232.13122L182.14641,232.99523L183.29833,233.13923L184.30625,233.13923L185.0262,232.85123L186.46609,232.56322L187.76199,231.98721L189.77784,230.8352L191.50571,230.11519L192.08167,229.68318L192.65763,229.53918L193.80954,228.24316L194.67348,227.09115L195.53741,226.51514L195.96938,226.37114L196.40135,226.37114L196.97731,226.51514L197.98523,227.23515L198.84917,228.09916L199.42512,228.53117L200.72103,228.96317L201.58496,229.10717L202.30491,229.10717L204.46475,229.10717L205.90464,229.39518L206.76857,229.97119L208.20847,231.1232L208.92841,231.41121L209.0724,231.55521L210.08033,231.69921L211.66421,231.69921L212.38416,231.41121L214.11203,230.9792L214.83197,230.6912L216.70383,230.40319L217.42378,230.54719L219.00766,231.2672L220.44755,231.41121L221.1675,231.2672L222.17543,230.8352L224.47925,230.11519L225.91915,229.39518L227.07106,228.96317L228.51095,228.81917L230.38281,228.38716L232.39866,228.38716L233.40659,228.38716L234.84648,228.24316L236.71834,227.81116L237.72627,227.81116L239.02217,228.09916L241.18201,228.09916L243.05387,227.23515L244.06179,226.94714L244.92573,226.80314L245.93365,226.65914L246.6536,226.37114L248.09349,226.37114L249.24541,226.65914L250.82929,227.66715L251.54923,227.81116L252.55716,227.81116L254.42902,227.23515L255.14897,226.94714L255.29295,226.94714L256.30088,226.51514L258.02875,226.22713L259.46864,226.08313L260.33258,225.79513L261.3405,224.93112L261.77247,223.9231L261.91646,222.48308L261.91646,222.05108L261.77247,220.61106L261.19651,218.88303L261.05253,217.87502L261.19651,216.723L261.91646,215.28298L262.49242,214.56297L262.7804,213.69896L262.92439,213.26695L262.7804,212.54694L263.50034,210.09891L263.93231,209.3789L264.79625,208.80289L265.66018,208.08288L266.23614,207.36287L266.66811,206.35486L266.66811,204.91484L266.52412,204.05083L266.66811,203.04281L266.66811,202.75481L267.24406,202.0348L267.53204,201.74679L268.39598,201.60279L269.25991,201.17079L269.97986,200.73878L270.41183,200.59478L272.28369,200.59478L273.29161,200.45078L273.72358,200.16277L274.29954,199.58676L275.88342,198.72275L276.74735,198.43475L278.33124,198.00274L279.05118,197.57074L279.19517,197.13873L279.91512,196.70673L280.77905,196.56272L281.499,196.56272L283.22687,196.56272L285.38671,195.84271L286.10666,195.69871L287.25857,195.55471L289.70639,195.26671L290.8583,194.8347L293.45011,194.5467L294.89,193.97069L295.75394,193.39468L296.04191,193.68268L296.1859,194.5467L296.04191,195.69871L295.32197,197.13873L294.45803,198.00274L293.01814,200.16277L292.44218,200.73878L292.01022,201.60279L291.86623,202.0348L290.8583,203.90682L290.28234,206.21086L289.99437,208.22688L289.99437,210.09891L289.5624,211.10692L289.5624,211.53893L289.85038,212.40294L290.42633,212.83495L290.8583,213.55496L291.43426,216.435L291.57825,217.73102L291.86623,218.45103L292.01022,218.73903L291.86623,218.88303L291.57825,219.45904L290.42633,220.32305L288.12251,223.4911L287.83453,224.35511L287.40256,226.08313L286.68261,228.24316L286.68261,228.67517L286.39463,230.54719L286.25065,231.98721L286.25065,232.56322L286.10666,233.71524L286.39463,234.14724L286.8266,234.72325L287.25857,234.86725L288.26649,235.29926L291.14628,235.58726L292.87415,235.73127L293.30612,235.87527L294.17005,236.73928L294.60202,236.59528L295.17798,236.30727L295.89793,236.01927L296.47388,236.01927L296.76186,236.16327L297.6258,236.88328L297.91378,239.18731L297.48181,240.33933L296.61787,241.20334L296.04191,241.34734L295.60995,241.77935L294.60202,244.37139L294.31404,244.94739L293.88208,245.6674L292.44218,247.39543L291.43426,249.12345L291.00229,250.41947L290.28234,251.85949L290.28234,252.29149L289.13043,255.89154L288.41048,257.04356L287.97852,257.61957L286.25065,259.05959L284.37878,260.2116L282.21895,261.21962L281.93097,261.50762L281.499,261.65162L281.35501,261.79563L280.63506,262.37163L280.34709,262.80364L279.91512,263.66765L279.48315,264.53166L279.33916,266.8357L279.48315,267.84371z" fill="#FBFCB6" fill-rule="evenodd" id="bhaktapur" stroke="#6E6E6E" stroke-linecap="round" stroke-linejoin="round" stroke-miterlimit="10" stroke-width="0.43197"></path><path clip-path="url(#SVG_CP_1)" d="M416.27295,285.84396L415.553,285.41195L414.83305,285.12395L414.11311,285.12395L413.24917,285.41195L412.09726,285.98796L411.23332,286.56397L410.2254,287.57198L409.21747,288.00399L408.35354,288.724L406.1937,289.30001L405.32976,289.44401L404.46583,289.87602L403.74588,290.16402L403.02593,290.30802L401.87402,290.30802L401.44205,290.45202L400.86609,291.02803L399.71418,291.60404L398.99423,291.74804L396.25844,291.31604L395.53849,290.88403L394.81855,290.59603L393.81062,290.59603L392.94669,290.74003L391.50679,290.74003L390.35488,290.30802L389.63493,290.16402L389.20296,289.87602L387.76307,289.44401L387.47509,289.30001L386.75515,288.58L386.89914,288.14799L386.75515,287.71599L386.32318,287.42798L385.60323,287.28398L384.59531,286.70797L383.87536,286.13196L383.01143,285.55596L382.57946,284.97995L382.29148,284.54794L380.99558,283.97193L380.7076,283.53993L381.13957,282.67592L380.99558,282.38791L380.85159,282.24391L380.13164,281.8119L379.55568,281.6679L379.26771,281.5239L377.10787,281.09189L376.6759,281.09189L375.23601,280.65989L374.37207,280.51589L373.36415,280.65989L372.50021,280.94789L372.21223,281.2359L371.92425,281.6679L371.92425,283.53993L371.49229,284.25994L371.20431,284.69194L370.91633,284.69194L370.48436,284.97995L369.62043,285.12395L368.90048,284.83595L368.75649,284.97995L368.03654,284.69194L366.74064,285.12395L365.73272,285.69996L365.44474,285.98796L364.43681,286.13196L363.42889,285.98796L361.98899,285.55596L361.26905,285.41195L358.53325,284.11594L356.5174,282.53191L355.79746,282.24391L354.78953,281.5239L353.49363,280.94789L352.19773,280.65989L351.04581,280.80389L349.8939,281.09189L348.88597,281.09189L347.73406,281.09189L343.84635,281.09189L343.55837,280.94789L342.83842,280.37188L342.83842,279.50787L341.97449,278.21185L341.8305,278.06785L341.11055,277.77985L339.95864,277.77985L339.23869,278.06785L338.66274,278.49986L337.65481,279.93988L337.22284,280.22788L336.07093,280.80389L334.63104,280.94789L332.32721,280.80389L330.88732,281.09189L330.31136,281.09189L330.02338,281.2359L329.59141,281.5239L329.30343,281.8119L328.72748,281.8119L328.00753,281.5239L326.56764,281.5239L325.99168,281.2359L324.55179,280.80389L324.11982,280.65989L322.39195,279.79588L321.52801,279.07587L321.09605,278.35586L320.66408,278.06785L319.51216,277.63585L317.6403,277.20384L316.48839,276.91584L315.19249,276.33983L314.18456,276.05182L312.88866,274.4678L312.45669,273.60379L311.16079,272.01977L310.58483,271.58776L310.44084,271.44376L308.281,271.44376L307.56106,271.58776L304.96925,271.29976L303.81733,271.01175L303.09739,271.01175L300.50558,270.72375L298.05776,270.72375L297.33782,270.57975L295.32197,270.72375L294.31404,270.43575L294.17005,270.43575L292.73016,269.71574L290.8583,269.13973L288.98644,267.98771L288.26649,267.84371L287.40256,267.69971L286.39463,267.55571L285.24272,267.55571L284.81075,267.4117L283.08288,267.2677L280.77905,267.84371L279.48315,267.84371L279.33916,266.8357L279.48315,264.53166L279.91512,263.66765L280.34709,262.80364L280.63506,262.37163L281.35501,261.79563L281.499,261.65162L281.93097,261.50762L282.21895,261.21962L284.37878,260.2116L286.25065,259.05959L287.97852,257.61957L288.41048,257.04356L289.13043,255.89154L290.28234,252.29149L290.28234,251.85949L291.00229,250.41947L291.43426,249.12345L292.44218,247.39543L293.88208,245.6674L294.31404,244.94739L294.60202,244.37139L295.60995,241.77935L296.04191,241.34734L296.61787,241.20334L297.48181,240.33933L297.91378,239.18731L297.6258,236.88328L296.76186,236.16327L296.47388,236.01927L295.89793,236.01927L295.17798,236.30727L294.60202,236.59528L294.17005,236.73928L293.30612,235.87527L292.87415,235.73127L291.14628,235.58726L288.26649,235.29926L287.25857,234.86725L286.8266,234.72325L286.39463,234.14724L286.10666,233.71524L286.25065,232.56322L286.25065,231.98721L286.39463,230.54719L286.68261,228.67517L286.68261,228.24316L287.40256,226.08313L287.83453,224.35511L288.12251,223.4911L290.42633,220.32305L291.57825,219.45904L291.86623,218.88303L292.01022,218.73903L291.86623,218.45103L291.57825,217.73102L291.43426,216.435L290.8583,213.55496L290.42633,212.83495L289.85038,212.40294L289.5624,211.53893L289.5624,211.10692L289.99437,210.09891L289.99437,208.22688L290.28234,206.21086L290.8583,203.90682L291.86623,202.0348L292.01022,201.60279L292.44218,200.73878L293.01814,200.16277L294.45803,198.00274L295.32197,197.13873L296.04191,195.69871L296.1859,194.5467L296.04191,193.68268L295.75394,193.39468L294.89,193.97069L293.45011,194.5467L290.8583,194.8347L289.70639,195.26671L287.25857,195.55471L286.10666,195.69871L285.38671,195.84271L283.22687,196.56272L281.499,196.56272L280.77905,196.56272L279.91512,196.70673L279.19517,197.13873L279.05118,197.57074L278.33124,198.00274L276.74735,198.43475L275.88342,198.72275L274.29954,199.58676L273.72358,200.16277L273.29161,200.45078L272.28369,200.59478L270.41183,200.59478L269.97986,200.73878L269.25991,201.17079L268.39598,201.60279L267.53204,201.74679L267.24406,202.0348L266.66811,202.75481L266.66811,203.04281L266.52412,204.05083L266.66811,204.91484L266.66811,206.35486L266.23614,207.36287L265.66018,208.08288L264.79625,208.80289L263.93231,209.3789L263.50034,210.09891L262.7804,212.54694L262.92439,213.26695L262.7804,213.69896L262.49242,214.56297L261.91646,215.28298L261.19651,216.723L261.05253,217.87502L261.19651,218.88303L261.77247,220.61106L261.91646,222.05108L261.91646,222.48308L261.77247,223.9231L261.3405,224.93112L260.33258,225.79513L259.46864,226.08313L258.02875,226.22713L256.30088,226.51514L255.29295,226.94714L255.14897,226.94714L254.42902,227.23515L252.55716,227.81116L251.54923,227.81116L250.82929,227.66715L249.24541,226.65914L248.09349,226.37114L246.6536,226.37114L245.93365,226.65914L244.92573,226.80314L244.06179,226.94714L243.05387,227.23515L241.18201,228.09916L239.02217,228.09916L237.72627,227.81116L236.71834,227.81116L234.84648,228.24316L233.40659,228.38716L232.39866,228.38716L230.38281,228.38716L228.51095,228.81917L227.07106,228.96317L225.91915,229.39518L224.47925,230.11519L222.17543,230.8352L221.1675,231.2672L220.44755,231.41121L219.00766,231.2672L217.42378,230.54719L216.70383,230.40319L214.83197,230.6912L214.11203,230.9792L212.38416,231.41121L211.66421,231.69921L210.08033,231.69921L209.0724,231.55521L208.92841,231.41121L208.20847,231.1232L206.76857,229.97119L205.90464,229.39518L204.46475,229.10717L202.30491,229.10717L201.58496,229.10717L200.72103,228.96317L199.42512,228.53117L198.84917,228.09916L197.98523,227.23515L196.97731,226.51514L196.40135,226.37114L195.96938,226.37114L195.53741,226.51514L194.67348,227.09115L193.80954,228.24316L192.65763,229.53918L192.08167,229.68318L191.50571,230.11519L189.77784,230.8352L187.76199,231.98721L186.46609,232.56322L185.0262,232.85123L184.30625,233.13923L183.29833,233.13923L182.14641,232.99523L180.9945,232.13122L179.98657,231.69921L178.40269,231.2672L177.68274,230.9792L178.11471,230.25919L178.40269,229.82718L178.54668,228.81917L179.26663,227.09115L179.12264,224.78711L179.12264,221.76307L178.69067,218.73903L178.40269,218.30702L177.53876,217.44301L176.09886,216.867L175.6669,216.579L175.37892,216.291L174.80296,216.00299L174.08301,215.57099L172.9311,215.28298L171.6352,214.70697L171.20323,214.56297L169.61935,214.70697L168.32344,214.99498L167.45951,215.13898L165.87563,215.13898L165.58765,214.85098L164.8677,214.13097L164.14775,212.83495L163.85978,211.68293L163.85978,211.10692L164.29174,209.6669L164.57972,209.2349L164.72371,208.37089L164.57972,207.93888L164.00377,206.78686L163.85978,206.21086L163.71579,204.33883L163.42781,203.04281L164.00377,200.30677L164.14775,199.15476L163.42781,198.29075L162.85185,197.28273L162.27589,195.26671L161.12398,192.96267L160.11606,190.37064L159.97207,189.93863L159.97207,187.6346L160.54802,186.33858L160.69201,185.33057L160.69201,184.46656L160.40403,183.02654L159.82808,181.73052L159.68409,181.44251L159.39611,180.5785L159.10813,179.57049L159.10813,178.70648L159.5401,177.26646L159.68409,176.40244L159.39611,175.10643L159.10813,174.53042L158.53217,171.93838L157.23627,169.92235L156.94829,169.63435L156.22835,168.77034L156.08436,168.33833L154.64446,166.46631L153.06058,164.88228L152.62861,164.59428L152.34064,164.59428L151.90867,165.02629L151.76468,164.16227L152.05266,162.29025L152.19665,162.00224L152.62861,160.85023L153.20457,159.98622L153.49255,159.98622L154.50047,159.26621L155.65239,158.40219L155.94037,158.11419L158.38818,156.38617L159.82808,156.09816L160.11606,156.09816L161.41196,155.95416L162.41988,156.09816L162.85185,156.09816L162.99584,156.24216L163.28382,156.24216L164.8677,156.53017L165.29967,156.53017L165.44366,156.53017L166.30759,156.09816L166.88355,155.81016L168.03546,154.94615L168.75541,154.51414L169.04339,154.37014L169.76334,153.65013L170.62727,152.49811L170.91525,152.06611L170.91525,151.9221L171.20323,151.3461L171.49121,150.77009L171.49121,150.48208L171.49121,150.05008L171.49121,149.04206L171.34722,148.61006L171.34722,148.32205L171.49121,147.89005L171.6352,147.74605L171.92317,147.31404L172.35514,146.73803L172.49913,146.59403L172.78711,146.45003L173.65105,145.73002L174.80296,145.15401L175.37892,144.578L176.09886,144.146L176.81881,143.85799L177.10679,143.71399L177.25078,143.71399L178.2587,143.28199L178.69067,142.99398L178.83466,142.84998L179.12264,142.56198L181.28248,139.96994L181.71444,139.68194L182.00242,139.39393L184.59423,137.66591L185.0262,137.66591L185.60215,137.52191L186.75407,137.52191L187.18604,137.52191L188.62593,137.80991L190.06582,137.95391L191.6497,138.09791L193.0896,138.38592L193.80954,138.09791L194.96146,137.52191L195.53741,137.0899L195.82539,136.65789L196.25736,135.93788L196.54534,134.92987L196.68933,133.92186L196.40135,133.20185L196.40135,132.91384L196.40135,132.76984L196.11337,132.48184L195.82539,132.19383L194.96146,131.61782L194.67348,131.47382L192.51364,129.7458L191.6497,127.58577L191.36172,127.29776L191.21774,127.15376L191.07375,127.00976L190.78577,126.72176L190.64178,126.72176L190.49779,126.43375L190.20981,125.85774L190.06582,123.69771L190.78577,122.6897L191.07375,122.25769L191.50571,122.11369L193.23358,121.39368L194.3855,121.24968L195.10545,121.24968L195.53741,121.39368L195.82539,121.53768L196.25736,121.82569L196.68933,121.96969L197.69725,122.6897L198.84917,123.40971L200.14507,124.27372L200.57704,124.41772L201.44097,125.13773L202.30491,125.13773L202.59289,125.13773L203.02485,124.84973L204.03278,124.56173L204.46475,124.27372L204.75273,123.84172L205.32868,122.8337L205.61666,121.82569L205.61666,119.66566L205.76065,118.94565L205.90464,118.36964L205.90464,117.79363L205.47267,117.21762L205.18469,117.07362L204.17677,116.64162L203.88879,116.35361L203.31283,115.6336L203.45682,114.76959L204.60874,113.90558L206.4806,113.47357L207.20054,113.61757L209.36038,114.62559L209.79235,114.91359L210.22432,115.2016L210.36831,115.2016L210.94426,115.2016L211.66421,114.91359L213.53607,114.04958L214.25602,113.76158L215.26394,113.90558L216.41586,114.76959L216.84782,114.91359L217.42378,115.05759L218.28772,115.05759L218.86367,114.76959L219.15165,114.33758L219.8716,112.89756L220.15958,111.31354L220.30357,110.16153L220.44755,108.5775L220.30357,108.0015L220.15958,106.41747L220.15958,105.40946L220.30357,105.12146L220.73553,104.68945L221.88745,104.11344L223.47133,103.68144L224.33526,103.68144L225.1992,103.68144L226.06314,104.11344L226.63909,104.68945L228.22297,105.40946L228.94292,105.55346L229.66287,105.69746L229.95085,105.69746L230.67079,105.55346L231.67872,104.97745L234.5585,103.82544L235.56643,103.96944L236.28637,104.40145L237.00632,104.40145L237.43829,103.96944L237.72627,103.10543L237.72627,102.38542L237.72627,101.95341L237.87025,100.65739L238.15823,99.93738L238.30222,99.64938L238.5902,99.64938L238.87818,99.64938L239.59813,99.64938L240.46206,100.08139L241.326,100.22539L241.61398,100.36939L242.18993,100.51339L242.33392,100.51339L243.19786,100.36939L243.62982,100.22539L244.63775,99.93738L245.64567,99.64938L245.78966,99.64938L247.22956,99.36138L248.38147,98.92937L249.82136,97.77735L250.10934,97.48935L251.40524,96.91334L252.12519,96.91334L252.26918,96.91334L252.98913,96.62534L255.14897,95.76133L255.72492,95.76133L257.59678,95.76133L258.31673,95.76133L258.89269,95.90533L259.90061,95.90533L260.18859,95.76133L260.62056,95.61732L261.62848,95.04132L262.06045,94.75331L262.20444,94.60931L262.34843,94.46531L262.7804,94.0333L263.93231,93.31329L265.08422,93.45729L266.09215,93.31329L267.24406,93.31329L269.11592,93.02529L269.25991,93.02529L269.69188,92.88129L270.69981,92.73728L270.84379,92.59328L270.98778,92.59328L271.27576,92.59328L271.13177,93.16929L270.84379,93.6013L270.84379,93.7453L270.26784,94.46531L270.12385,94.60931L269.25991,95.32932L268.68396,96.19333L268.68396,96.33733L268.68396,96.62534L268.68396,96.76934L269.11592,97.48935L269.69188,97.77735L270.12385,97.92136L270.12385,98.06536L270.26784,98.20936L271.13177,98.64137L271.41975,98.64137L273.14762,97.34535L273.29161,97.34535L273.57959,97.20135L274.29954,97.20135L275.16347,97.77735L276.02741,98.64137L277.4673,99.64938L277.75528,99.93738L278.18725,100.36939L278.90719,100.65739L280.05911,100.8014L280.34709,100.9454L280.63506,101.0894L280.92304,101.2334L281.78698,101.80941L282.93889,102.24142L283.51485,102.24142L284.66676,102.24142L285.38671,102.09741L286.68261,101.52141L287.11458,101.3774L287.40256,101.2334L287.97852,100.65739L288.41048,100.08139L288.69846,99.79338L288.98644,99.64938L289.5624,99.79338L291.43426,101.0894L292.44218,101.95341L294.31404,102.38542L295.32197,102.38542L295.60995,102.24142L295.89793,102.24142L296.1859,102.38542L296.47388,102.38542L296.61787,102.67342L296.90585,103.10543L297.04984,103.24943L297.04984,103.39343L297.33782,103.68144L297.6258,104.11344L297.91378,104.40145L298.20175,104.54545L299.06569,104.97745L299.35367,105.12146L300.36159,105.84147L301.36952,106.27347L302.52143,106.41747L303.09739,106.41747L303.52936,106.41747L303.81733,106.56148L303.81733,106.70548L304.10531,106.99348L304.2493,107.28149L304.10531,107.56949L303.67335,108.5775L303.52936,108.72151L303.52936,109.15351L303.67335,109.29751L303.81733,109.58552L304.10531,109.72952L304.2493,109.72952L304.82526,109.87352L305.54521,109.72952L306.26515,109.58552L306.9851,109.15351L307.56106,108.86551L307.70504,108.72151L308.42499,108.5775L309.57691,108.72151L310.00887,109.15351L311.16079,109.72952L311.88073,110.30553L312.3127,110.59353L314.18456,111.45754L315.0485,112.17755L315.33648,112.75356L315.76844,113.32957L315.91243,113.47357L316.48839,114.04958L316.77637,114.48159L317.6403,114.91359L317.92828,115.05759L318.36025,115.3456L319.80014,115.4896L321.672,115.05759L321.81599,115.05759L322.53594,114.48159L322.67993,114.33758L322.82392,114.33758L323.68785,113.76158L323.97583,113.47357L325.27173,112.89756L325.55971,112.75356L325.84769,112.60956L326.42365,112.89756L326.85562,113.04157L327.57556,113.76158L327.71955,113.90558L327.86354,113.90558L328.4395,114.33758L330.16737,115.05759L330.74333,115.4896L331.0313,115.6336L332.03923,116.35361L332.32721,116.64162L333.33513,117.36163L334.05508,117.79363L334.91901,118.22564L335.35098,118.22564L337.22284,118.22564L338.23077,118.08164L338.95071,117.64963L339.23869,117.36163L339.38268,116.64162L339.38268,116.35361L340.5346,115.2016L340.82257,113.90558L341.39853,113.47357L341.54252,113.32957L342.40646,113.18557L344.42231,113.32957L347.59007,113.04157L348.31002,112.89756L348.454,112.89756L348.454,112.75356L348.74198,112.89756L349.17395,112.89756L349.46193,113.04157L349.74991,113.18557L349.8939,113.18557L350.03789,113.18557L350.32587,113.18557L351.04581,113.04157L351.62177,113.04157L352.05374,113.18557L352.4857,113.18557L352.77368,113.32957L353.20565,113.47357L353.63762,113.90558L353.78161,114.04958L354.06959,114.19358L354.21358,114.48159L354.35756,114.62559L354.93352,115.4896L355.2215,116.20961L354.78953,117.79363L354.78953,117.93763L354.64554,118.08164L354.50155,118.36964L354.35756,119.80966L354.35756,120.38567L354.78953,121.10568L355.50948,121.53768L355.65347,121.68169L355.94145,121.68169L357.66932,122.11369L358.67724,122.25769L359.54118,122.5457L359.82916,122.5457L360.11713,122.5457L361.26905,122.5457L362.42096,122.6897L362.85293,122.9777L363.42889,123.26571L364.00484,123.98572L364.29282,124.41772L364.43681,124.56173L364.86878,124.99373L365.30075,125.28174L365.8767,125.56974L366.02069,125.56974L366.30867,125.71374L366.45266,125.71374L366.88463,125.85774L367.02862,125.85774L370.05239,126.57775L370.48436,126.57775L370.62835,126.57775L370.91633,126.28975L371.63628,125.71374L372.50021,125.42574L373.07617,124.99373L373.07617,124.41772L372.93218,123.98572L372.93218,123.84172L372.93218,123.69771L372.93218,123.55371L372.93218,122.9777L373.22016,122.25769L373.65212,121.82569L375.38,121.24968L377.39585,121.24968L377.53983,121.24968L378.25978,120.96168L378.69175,120.81767L378.69175,120.67367L378.83574,120.52967L379.12372,120.24167L379.98765,119.37765L382.0035,118.65764L383.87536,117.93763L384.59531,117.79363L387.18712,118.51364L387.61908,118.65764L391.65078,118.51364L392.94669,118.65764L395.3945,118.94565L396.11445,118.94565L396.25844,118.94565L397.26636,118.65764L398.56227,118.51364L398.70626,118.51364L399.57019,118.51364L400.29014,118.51364L402.44998,118.08164L403.02593,117.64963L403.02593,117.50563L403.16992,117.36163L403.16992,117.21762L403.74588,115.92161L404.32184,115.2016L404.60982,115.05759L405.04178,114.76959L406.33769,114.91359L408.20955,114.76959L409.64944,114.76959L411.5213,114.62559L411.66529,114.62559L411.95327,114.48159L414.11311,113.04157L414.83305,112.75356L415.40901,112.75356L415.69699,112.75356L417.42486,112.89756L417.71284,112.89756L418.14481,112.75356L418.57677,112.75356L418.86475,112.60956L419.00874,112.60956L419.15273,112.60956L419.44071,112.46556L420.16066,112.17755L420.16066,112.03355L420.44863,111.88955L420.8806,111.74555L421.60055,111.31354L422.03252,111.31354L422.60847,111.16954L423.18443,110.88154L423.47241,110.73753L425.48826,109.44152L426.92815,109.00951L427.21613,108.86551L428.944,108.5775L429.80794,108.2895L430.38389,107.71349L430.81586,106.84948L431.10384,105.98547L431.39182,105.69746L431.53581,105.55346L431.6798,105.12146L432.39974,104.54545L432.83171,104.11344L433.26368,104.25744L434.41559,104.68945L435.42352,105.12146L435.85548,105.12146L436.28745,105.12146L437.0074,104.97745L437.72734,105.12146L438.3033,105.26546L438.87926,105.84147L439.16724,105.98547L439.45522,105.84147L440.89511,105.12146L441.75904,104.83345L443.19894,104.68945L443.91888,104.83345L444.35085,104.97745L445.64675,104.40145L446.79867,104.40145L447.37462,104.11344L448.23856,103.96944L449.24649,103.68144L449.67845,103.10543L449.82244,102.96143L449.96643,102.38542L450.11042,102.24142L450.25441,102.09741L450.83037,101.66541L451.11835,101.52141L451.83829,101.52141L452.55824,101.2334L452.84622,100.8014L452.99021,100.65739L452.99021,100.36939L453.1342,100.22539L453.42217,100.08139L453.99813,100.08139L454.86207,99.93738L455.29403,99.79338L455.726,99.50538L456.15797,99.50538L456.44595,99.50538L457.30988,99.93738L457.88584,100.08139L458.4618,99.93738L458.89377,99.64938L458.89377,99.50538L459.61371,99.36138L460.76563,99.21737L461.34158,99.21737L461.91754,99.21737L464.22137,98.49736L465.22929,98.49736L466.81317,97.63335L467.96509,97.05734L468.54105,96.48134L469.117,96.04933L469.54897,96.04933L470.5569,95.61732L471.27684,94.75331L471.42083,94.60931L471.56482,94.1773L471.70881,94.0333L471.8528,93.7453L471.99679,93.45729L472.28477,93.31329L473.00471,93.02529L474.73258,93.02529L475.16455,92.88129L476.17248,92.73728L476.89242,92.73728L477.46838,92.73728L477.90035,92.73728L478.62029,92.44928L478.90827,92.30528L480.06019,91.87327L481.50008,91.87327L482.508,91.87327L483.08396,91.72927L484.23587,91.72927L485.2438,91.58527L485.96375,91.29727L486.10774,91.29727L486.97167,91.15326L487.54763,91.15326L488.26757,91.29727L491.14736,91.44127L491.57933,91.29727L492.73124,91.00926L493.73917,90.86526L494.45911,90.86526L496.76294,91.58527L497.3389,91.87327L497.48289,92.01728L498.77879,93.02529L499.21076,93.31329L499.64273,93.45729L500.07469,93.7453L500.50666,94.0333L501.22661,94.32131L501.80256,94.60931L502.23453,94.89731L502.52251,95.04132L503.38645,95.18532L504.10639,95.32932L504.53836,95.61732L504.97033,95.90533L505.54629,96.76934L505.69027,96.91334L505.97825,97.20135L506.6982,98.06536L506.84219,98.20936L507.9941,98.78537L508.57006,99.21737L508.71405,99.36138L508.71405,99.79338L508.28208,100.22539L508.13809,100.22539L507.9941,100.36939L507.13017,100.36939L506.55421,100.51339L505.69027,100.9454L505.4023,101.66541L505.83426,103.39343L505.69027,103.96944L505.54629,104.40145L505.25831,104.68945L505.11432,104.83345L504.97033,105.12146L504.68235,105.98547L504.10639,106.56148L503.81841,106.84948L503.24246,107.13748L502.95448,107.42549L502.81049,107.71349L502.81049,108.1455L502.81049,108.5775L502.37852,109.15351L501.80256,110.59353L501.3706,111.02554L500.65065,111.45754L499.35475,112.60956L498.49081,113.47357L497.91485,114.19358L497.62688,115.05759L497.48289,115.3456L496.90693,116.49761L496.33097,117.21762L496.04299,117.36163L494.74709,118.36964L494.17113,118.65764L493.3072,118.80165L493.01922,118.94565L493.16321,119.37765L493.88316,120.81767L494.17113,121.68169L494.31512,122.6897L495.03507,125.42574L495.899,126.43375L497.05092,127.87377L497.48289,128.44978L497.77087,129.31379L497.91485,130.46581L498.05884,131.04182L498.05884,131.32982L498.20283,132.33783L498.49081,134.64187L498.34682,135.50588L498.05884,135.93788L497.91485,136.36989L497.3389,136.9459L496.33097,138.09791L495.32305,139.24993L494.89108,140.54595L494.89108,140.83395L494.89108,141.40996L495.03507,141.84197L495.46704,142.41797L496.04299,142.99398L497.05092,144.578L497.77087,145.29801L498.34682,146.16202L498.6348,147.17004L498.34682,149.61807L499.06677,151.05809L499.21076,151.05809L499.35475,151.6341L499.35475,152.35411L499.35475,152.49811L499.21076,152.64211L499.06677,152.78612L498.77879,152.78612L498.6348,152.78612L498.49081,152.49811L498.34682,152.49811L498.05884,152.35411L497.77087,152.49811L497.91485,153.21812L498.20283,153.79413L498.6348,155.09015L499.21076,156.81817L499.21076,157.82619L499.35475,158.8342L499.49874,159.1222L499.64273,159.55421L500.50666,160.85023L500.65065,161.28223L500.65065,161.85824L500.50666,162.00224L499.9307,162.57825L499.49874,163.15426L499.21076,163.58627L499.06677,164.01827L498.92278,164.88228L498.77879,166.1783L499.06677,167.04231L499.21076,168.05033L498.92278,169.05834L498.6348,169.63435L498.20283,170.93037L497.19491,172.08238L496.90693,172.37039L496.33097,172.9464L495.899,173.66641L495.899,174.24241L495.899,174.81842L496.47496,176.83445L496.90693,177.26646L497.62688,177.69846L498.05884,178.27447L498.34682,178.99448L498.92278,180.4345L499.06677,181.15451L498.92278,181.44251L498.92278,182.30653L498.34682,183.17054L498.20283,183.74655L498.05884,184.61056L498.05884,185.18657L498.05884,185.90658L497.48289,186.33858L496.90693,186.91459L496.33097,187.05859L496.04299,187.05859L495.32305,187.6346L495.03507,188.78662L495.03507,189.21862L494.89108,189.65063L494.31512,189.93863L493.73917,189.50663L493.16321,189.50663L492.73124,189.65063L492.44326,190.08263L492.01129,190.37064L491.57933,190.51464L490.71539,189.93863L489.99545,189.65063L489.56348,189.65063L486.39571,189.50663L485.53178,189.79463L484.81183,190.22664L484.09189,190.51464L483.22795,190.37064L482.65199,190.37064L479.62822,191.66666L478.33232,192.09866L477.46838,192.24266L475.45253,192.67467L473.29269,192.81867L471.56482,192.53067L471.56482,192.38667L471.42083,192.38667L470.12493,192.38667L469.54897,192.38667L469.117,192.24266L468.97301,192.24266L468.54105,192.53067L468.10908,192.96267L467.8211,192.96267L466.81317,192.67467L466.38121,192.38667L465.22929,191.95466L463.64541,191.52265L463.35743,191.37865L463.21344,191.23465L462.78148,190.65864L462.34951,190.37064L461.77355,189.93863L460.62164,189.65063L459.90169,189.50663L458.89377,189.50663L456.87792,189.93863L456.15797,190.22664L455.726,190.37064L454.86207,191.09065L454.28611,191.95466L453.99813,192.81867L453.99813,193.10668L452.99021,194.40269L452.12627,195.1227L450.68638,197.28273L450.3984,197.57074L450.25441,197.57074L449.82244,198.14674L449.39047,198.72275L448.81452,199.01076L448.09457,199.01076L447.95058,199.15476L447.51861,200.01877L447.51861,201.02678L448.23856,202.3228L448.38255,202.75481L448.38255,203.90682L448.38255,204.33883L448.23856,204.48283L448.23856,205.34684L448.23856,207.07487L447.80659,210.24291L447.37462,211.10692L447.08665,211.39493L446.79867,211.53893L446.51069,211.97094L446.51069,212.40294L446.51069,213.41096L445.93473,215.28298L445.93473,215.42698L445.93473,216.00299L445.79074,216.579L445.50276,216.867L445.0708,217.44301L444.49484,217.58701L443.77489,217.73102L443.6309,217.87502L443.6309,218.01902L443.77489,218.88303L443.6309,219.74704L443.91888,221.61907L443.91888,221.90707L443.91888,222.48308L443.6309,222.77109L443.48691,223.05909L443.05495,223.9231L442.91096,224.78711L442.91096,224.93112L442.91096,225.50712L442.62298,226.08313L441.90303,227.37915L441.75904,228.24316L441.61505,229.25118L441.32708,229.97119L440.60713,230.54719L440.31915,230.9792L439.59921,231.84321L439.16724,233.85924L438.44729,235.01126L437.72734,235.73127L436.86341,236.16327L435.99947,236.88328L435.42352,237.60329L435.42352,238.0353L435.42352,238.4673L435.42352,238.61131L435.42352,239.33132L434.70357,240.48333L432.83171,241.92335L431.6798,242.93137L431.82379,246.67542L431.96777,248.11544L432.11176,248.83545L432.11176,250.56347L432.11176,251.71549L431.96777,252.14749L431.82379,252.8675L431.39182,253.87552L430.81586,254.73953L430.52788,255.17153L430.2399,256.03555L429.37597,257.04356L428.80001,258.19558L427.50411,260.0676L426.49618,261.65162L426.49618,261.79563L425.05629,263.66765L424.76831,264.38766L424.33634,265.10767L424.33634,266.69169L424.9123,268.99573L425.20028,270.57975L425.20028,271.73176L425.20028,272.16377L424.19235,274.1798L422.89645,275.33181L422.1765,275.76382L421.45656,276.33983L421.31257,276.33983L419.87268,278.78786L419.00874,279.36387L417.85683,279.93988L417.71284,280.51589L417.71284,281.6679L417.71284,283.25192L417.56885,283.68393L416.99289,284.54794L416.70491,285.12395L416.27295,285.84396z" fill="#FCC7C0" fill-rule="evenodd" id="changunarayan" stroke="none"></path><path clip-path="url(#SVG_CP_1)" d="M416.27295,285.84396L415.553,285.41195L414.83305,285.12395L414.11311,285.12395L413.24917,285.41195L412.09726,285.98796L411.23332,286.56397L410.2254,287.57198L409.21747,288.00399L408.35354,288.724L406.1937,289.30001L405.32976,289.44401L404.46583,289.87602L403.74588,290.16402L403.02593,290.30802L401.87402,290.30802L401.44205,290.45202L400.86609,291.02803L399.71418,291.60404L398.99423,291.74804L396.25844,291.31604L395.53849,290.88403L394.81855,290.59603L393.81062,290.59603L392.94669,290.74003L391.50679,290.74003L390.35488,290.30802L389.63493,290.16402L389.20296,289.87602L387.76307,289.44401L387.47509,289.30001L386.75515,288.58L386.89914,288.14799L386.75515,287.71599L386.32318,287.42798L385.60323,287.28398L384.59531,286.70797L383.87536,286.13196L383.01143,285.55596L382.57946,284.97995L382.29148,284.54794L380.99558,283.97193L380.7076,283.53993L381.13957,282.67592L380.99558,282.38791L380.85159,282.24391L380.13164,281.8119L379.55568,281.6679L379.26771,281.5239L377.10787,281.09189L376.6759,281.09189L375.23601,280.65989L374.37207,280.51589L373.36415,280.65989L372.50021,280.94789L372.21223,281.2359L371.92425,281.6679L371.92425,283.53993L371.49229,284.25994L371.20431,284.69194L370.91633,284.69194L370.48436,284.97995L369.62043,285.12395L368.90048,284.83595L368.75649,284.97995L368.03654,284.69194L366.74064,285.12395L365.73272,285.69996L365.44474,285.98796L364.43681,286.13196L363.42889,285.98796L361.98899,285.55596L361.26905,285.41195L358.53325,284.11594L356.5174,282.53191L355.79746,282.24391L354.78953,281.5239L353.49363,280.94789L352.19773,280.65989L351.04581,280.80389L349.8939,281.09189L348.88597,281.09189L347.73406,281.09189L343.84635,281.09189L343.55837,280.94789L342.83842,280.37188L342.83842,279.50787L341.97449,278.21185L341.8305,278.06785L341.11055,277.77985L339.95864,277.77985L339.23869,278.06785L338.66274,278.49986L337.65481,279.93988L337.22284,280.22788L336.07093,280.80389L334.63104,280.94789L332.32721,280.80389L330.88732,281.09189L330.31136,281.09189L330.02338,281.2359L329.59141,281.5239L329.30343,281.8119L328.72748,281.8119L328.00753,281.5239L326.56764,281.5239L325.99168,281.2359L324.55179,280.80389L324.11982,280.65989L322.39195,279.79588L321.52801,279.07587L321.09605,278.35586L320.66408,278.06785L319.51216,277.63585L317.6403,277.20384L316.48839,276.91584L315.19249,276.33983L314.18456,276.05182L312.88866,274.4678L312.45669,273.60379L311.16079,272.01977L310.58483,271.58776L310.44084,271.44376L308.281,271.44376L307.56106,271.58776L304.96925,271.29976L303.81733,271.01175L303.09739,271.01175L300.50558,270.72375L298.05776,270.72375L297.33782,270.57975L295.32197,270.72375L294.31404,270.43575L294.17005,270.43575L292.73016,269.71574L290.8583,269.13973L288.98644,267.98771L288.26649,267.84371L287.40256,267.69971L286.39463,267.55571L285.24272,267.55571L284.81075,267.4117L283.08288,267.2677L280.77905,267.84371L279.48315,267.84371L279.33916,266.8357L279.48315,264.53166L279.91512,263.66765L280.34709,262.80364L280.63506,262.37163L281.35501,261.79563L281.499,261.65162L281.93097,261.50762L282.21895,261.21962L284.37878,260.2116L286.25065,259.05959L287.97852,257.61957L288.41048,257.04356L289.13043,255.89154L290.28234,252.29149L290.28234,251.85949L291.00229,250.41947L291.43426,249.12345L292.44218,247.39543L293.88208,245.6674L294.31404,244.94739L294.60202,244.37139L295.60995,241.77935L296.04191,241.34734L296.61787,241.20334L297.48181,240.33933L297.91378,239.18731L297.6258,236.88328L296.76186,236.16327L296.47388,236.01927L295.89793,236.01927L295.17798,236.30727L294.60202,236.59528L294.17005,236.73928L293.30612,235.87527L292.87415,235.73127L291.14628,235.58726L288.26649,235.29926L287.25857,234.86725L286.8266,234.72325L286.39463,234.14724L286.10666,233.71524L286.25065,232.56322L286.25065,231.98721L286.39463,230.54719L286.68261,228.67517L286.68261,228.24316L287.40256,226.08313L287.83453,224.35511L288.12251,223.4911L290.42633,220.32305L291.57825,219.45904L291.86623,218.88303L292.01022,218.73903L291.86623,218.45103L291.57825,217.73102L291.43426,216.435L290.8583,213.55496L290.42633,212.83495L289.85038,212.40294L289.5624,211.53893L289.5624,211.10692L289.99437,210.09891L289.99437,208.22688L290.28234,206.21086L290.8583,203.90682L291.86623,202.0348L292.01022,201.60279L292.44218,200.73878L293.01814,200.16277L294.45803,198.00274L295.32197,197.13873L296.04191,195.69871L296.1859,194.5467L296.04191,193.68268L295.75394,193.39468L294.89,193.97069L293.45011,194.5467L290.8583,194.8347L289.70639,195.26671L287.25857,195.55471L286.10666,195.69871L285.38671,195.84271L283.22687,196.56272L281.499,196.56272L280.77905,196.56272L279.91512,196.70673L279.19517,197.13873L279.05118,197.57074L278.33124,198.00274L276.74735,198.43475L275.88342,198.72275L274.29954,199.58676L273.72358,200.16277L273.29161,200.45078L272.28369,200.59478L270.41183,200.59478L269.97986,200.73878L269.25991,201.17079L268.39598,201.60279L267.53204,201.74679L267.24406,202.0348L266.66811,202.75481L266.66811,203.04281L266.52412,204.05083L266.66811,204.91484L266.66811,206.35486L266.23614,207.36287L265.66018,208.08288L264.79625,208.80289L263.93231,209.3789L263.50034,210.09891L262.7804,212.54694L262.92439,213.26695L262.7804,213.69896L262.49242,214.56297L261.91646,215.28298L261.19651,216.723L261.05253,217.87502L261.19651,218.88303L261.77247,220.61106L261.91646,222.05108L261.91646,222.48308L261.77247,223.9231L261.3405,224.93112L260.33258,225.79513L259.46864,226.08313L258.02875,226.22713L256.30088,226.51514L255.29295,226.94714L255.14897,226.94714L254.42902,227.23515L252.55716,227.81116L251.54923,227.81116L250.82929,227.66715L249.24541,226.65914L248.09349,226.37114L246.6536,226.37114L245.93365,226.65914L244.92573,226.80314L244.06179,226.94714L243.05387,227.23515L241.18201,228.09916L239.02217,228.09916L237.72627,227.81116L236.71834,227.81116L234.84648,228.24316L233.40659,228.38716L232.39866,228.38716L230.38281,228.38716L228.51095,228.81917L227.07106,228.96317L225.91915,229.39518L224.47925,230.11519L222.17543,230.8352L221.1675,231.2672L220.44755,231.41121L219.00766,231.2672L217.42378,230.54719L216.70383,230.40319L214.83197,230.6912L214.11203,230.9792L212.38416,231.41121L211.66421,231.69921L210.08033,231.69921L209.0724,231.55521L208.92841,231.41121L208.20847,231.1232L206.76857,229.97119L205.90464,229.39518L204.46475,229.10717L202.30491,229.10717L201.58496,229.10717L200.72103,228.96317L199.42512,228.53117L198.84917,228.09916L197.98523,227.23515L196.97731,226.51514L196.40135,226.37114L195.96938,226.37114L195.53741,226.51514L194.67348,227.09115L193.80954,228.24316L192.65763,229.53918L192.08167,229.68318L191.50571,230.11519L189.77784,230.8352L187.76199,231.98721L186.46609,232.56322L185.0262,232.85123L184.30625,233.13923L183.29833,233.13923L182.14641,232.99523L180.9945,232.13122L179.98657,231.69921L178.40269,231.2672L177.68274,230.9792L178.11471,230.25919L178.40269,229.82718L178.54668,228.81917L179.26663,227.09115L179.12264,224.78711L179.12264,221.76307L178.69067,218.73903L178.40269,218.30702L177.53876,217.44301L176.09886,216.867L175.6669,216.579L175.37892,216.291L174.80296,216.00299L174.08301,215.57099L172.9311,215.28298L171.6352,214.70697L171.20323,214.56297L169.61935,214.70697L168.32344,214.99498L167.45951,215.13898L165.87563,215.13898L165.58765,214.85098L164.8677,214.13097L164.14775,212.83495L163.85978,211.68293L163.85978,211.10692L164.29174,209.6669L164.57972,209.2349L164.72371,208.37089L164.57972,207.93888L164.00377,206.78686L163.85978,206.21086L163.71579,204.33883L163.42781,203.04281L164.00377,200.30677L164.14775,199.15476L163.42781,198.29075L162.85185,197.28273L162.27589,195.26671L161.12398,192.96267L160.11606,190.37064L159.97207,189.93863L159.97207,187.6346L160.54802,186.33858L160.69201,185.33057L160.69201,184.46656L160.40403,183.02654L159.82808,181.73052L159.68409,181.44251L159.39611,180.5785L159.10813,179.57049L159.10813,178.70648L159.5401,177.26646L159.68409,176.40244L159.39611,175.10643L159.10813,174.53042L158.53217,171.93838L157.23627,169.92235L156.94829,169.63435L156.22835,168.77034L156.08436,168.33833L154.64446,166.46631L153.06058,164.88228L152.62861,164.59428L152.34064,164.59428L151.90867,165.02629L151.76468,164.16227L152.05266,162.29025L152.19665,162.00224L152.62861,160.85023L153.20457,159.98622L153.49255,159.98622L154.50047,159.26621L155.65239,158.40219L155.94037,158.11419L158.38818,156.38617L159.82808,156.09816L160.11606,156.09816L161.41196,155.95416L162.41988,156.09816L162.85185,156.09816L162.99584,156.24216L163.28382,156.24216L164.8677,156.53017L165.29967,156.53017L165.44366,156.53017L166.30759,156.09816L166.88355,155.81016L168.03546,154.94615L168.75541,154.51414L169.04339,154.37014L169.76334,153.65013L170.62727,152.49811L170.91525,152.06611L170.91525,151.9221L171.20323,151.3461L171.49121,150.77009L171.49121,150.48208L171.49121,150.05008L171.49121,149.04206L171.34722,148.61006L171.34722,148.32205L171.49121,147.89005L171.6352,147.74605L171.92317,147.31404L172.35514,146.73803L172.49913,146.59403L172.78711,146.45003L173.65105,145.73002L174.80296,145.15401L175.37892,144.578L176.09886,144.146L176.81881,143.85799L177.10679,143.71399L177.25078,143.71399L178.2587,143.28199L178.69067,142.99398L178.83466,142.84998L179.12264,142.56198L181.28248,139.96994L181.71444,139.68194L182.00242,139.39393L184.59423,137.66591L185.0262,137.66591L185.60215,137.52191L186.75407,137.52191L187.18604,137.52191L188.62593,137.80991L190.06582,137.95391L191.6497,138.09791L193.0896,138.38592L193.80954,138.09791L194.96146,137.52191L195.53741,137.0899L195.82539,136.65789L196.25736,135.93788L196.54534,134.92987L196.68933,133.92186L196.40135,133.20185L196.40135,132.91384L196.40135,132.76984L196.11337,132.48184L195.82539,132.19383L194.96146,131.61782L194.67348,131.47382L192.51364,129.7458L191.6497,127.58577L191.36172,127.29776L191.21774,127.15376L191.07375,127.00976L190.78577,126.72176L190.64178,126.72176L190.49779,126.43375L190.20981,125.85774L190.06582,123.69771L190.78577,122.6897L191.07375,122.25769L191.50571,122.11369L193.23358,121.39368L194.3855,121.24968L195.10545,121.24968L195.53741,121.39368L195.82539,121.53768L196.25736,121.82569L196.68933,121.96969L197.69725,122.6897L198.84917,123.40971L200.14507,124.27372L200.57704,124.41772L201.44097,125.13773L202.30491,125.13773L202.59289,125.13773L203.02485,124.84973L204.03278,124.56173L204.46475,124.27372L204.75273,123.84172L205.32868,122.8337L205.61666,121.82569L205.61666,119.66566L205.76065,118.94565L205.90464,118.36964L205.90464,117.79363L205.47267,117.21762L205.18469,117.07362L204.17677,116.64162L203.88879,116.35361L203.31283,115.6336L203.45682,114.76959L204.60874,113.90558L206.4806,113.47357L207.20054,113.61757L209.36038,114.62559L209.79235,114.91359L210.22432,115.2016L210.36831,115.2016L210.94426,115.2016L211.66421,114.91359L213.53607,114.04958L214.25602,113.76158L215.26394,113.90558L216.41586,114.76959L216.84782,114.91359L217.42378,115.05759L218.28772,115.05759L218.86367,114.76959L219.15165,114.33758L219.8716,112.89756L220.15958,111.31354L220.30357,110.16153L220.44755,108.5775L220.30357,108.0015L220.15958,106.41747L220.15958,105.40946L220.30357,105.12146L220.73553,104.68945L221.88745,104.11344L223.47133,103.68144L224.33526,103.68144L225.1992,103.68144L226.06314,104.11344L226.63909,104.68945L228.22297,105.40946L228.94292,105.55346L229.66287,105.69746L229.95085,105.69746L230.67079,105.55346L231.67872,104.97745L234.5585,103.82544L235.56643,103.96944L236.28637,104.40145L237.00632,104.40145L237.43829,103.96944L237.72627,103.10543L237.72627,102.38542L237.72627,101.95341L237.87025,100.65739L238.15823,99.93738L238.30222,99.64938L238.5902,99.64938L238.87818,99.64938L239.59813,99.64938L240.46206,100.08139L241.326,100.22539L241.61398,100.36939L242.18993,100.51339L242.33392,100.51339L243.19786,100.36939L243.62982,100.22539L244.63775,99.93738L245.64567,99.64938L245.78966,99.64938L247.22956,99.36138L248.38147,98.92937L249.82136,97.77735L250.10934,97.48935L251.40524,96.91334L252.12519,96.91334L252.26918,96.91334L252.98913,96.62534L255.14897,95.76133L255.72492,95.76133L257.59678,95.76133L258.31673,95.76133L258.89269,95.90533L259.90061,95.90533L260.18859,95.76133L260.62056,95.61732L261.62848,95.04132L262.06045,94.75331L262.20444,94.60931L262.34843,94.46531L262.7804,94.0333L263.93231,93.31329L265.08422,93.45729L266.09215,93.31329L267.24406,93.31329L269.11592,93.02529L269.25991,93.02529L269.69188,92.88129L270.69981,92.73728L270.84379,92.59328L270.98778,92.59328L271.27576,92.59328L271.13177,93.16929L270.84379,93.6013L270.84379,93.7453L270.26784,94.46531L270.12385,94.60931L269.25991,95.32932L268.68396,96.19333L268.68396,96.33733L268.68396,96.62534L268.68396,96.76934L269.11592,97.48935L269.69188,97.77735L270.12385,97.92136L270.12385,98.06536L270.26784,98.20936L271.13177,98.64137L271.41975,98.64137L273.14762,97.34535L273.29161,97.34535L273.57959,97.20135L274.29954,97.20135L275.16347,97.77735L276.02741,98.64137L277.4673,99.64938L277.75528,99.93738L278.18725,100.36939L278.90719,100.65739L280.05911,100.8014L280.34709,100.9454L280.63506,101.0894L280.92304,101.2334L281.78698,101.80941L282.93889,102.24142L283.51485,102.24142L284.66676,102.24142L285.38671,102.09741L286.68261,101.52141L287.11458,101.3774L287.40256,101.2334L287.97852,100.65739L288.41048,100.08139L288.69846,99.79338L288.98644,99.64938L289.5624,99.79338L291.43426,101.0894L292.44218,101.95341L294.31404,102.38542L295.32197,102.38542L295.60995,102.24142L295.89793,102.24142L296.1859,102.38542L296.47388,102.38542L296.61787,102.67342L296.90585,103.10543L297.04984,103.24943L297.04984,103.39343L297.33782,103.68144L297.6258,104.11344L297.91378,104.40145L298.20175,104.54545L299.06569,104.97745L299.35367,105.12146L300.36159,105.84147L301.36952,106.27347L302.52143,106.41747L303.09739,106.41747L303.52936,106.41747L303.81733,106.56148L303.81733,106.70548L304.10531,106.99348L304.2493,107.28149L304.10531,107.56949L303.67335,108.5775L303.52936,108.72151L303.52936,109.15351L303.67335,109.29751L303.81733,109.58552L304.10531,109.72952L304.2493,109.72952L304.82526,109.87352L305.54521,109.72952L306.26515,109.58552L306.9851,109.15351L307.56106,108.86551L307.70504,108.72151L308.42499,108.5775L309.57691,108.72151L310.00887,109.15351L311.16079,109.72952L311.88073,110.30553L312.3127,110.59353L314.18456,111.45754L315.0485,112.17755L315.33648,112.75356L315.76844,113.32957L315.91243,113.47357L316.48839,114.04958L316.77637,114.48159L317.6403,114.91359L317.92828,115.05759L318.36025,115.3456L319.80014,115.4896L321.672,115.05759L321.81599,115.05759L322.53594,114.48159L322.67993,114.33758L322.82392,114.33758L323.68785,113.76158L323.97583,113.47357L325.27173,112.89756L325.55971,112.75356L325.84769,112.60956L326.42365,112.89756L326.85562,113.04157L327.57556,113.76158L327.71955,113.90558L327.86354,113.90558L328.4395,114.33758L330.16737,115.05759L330.74333,115.4896L331.0313,115.6336L332.03923,116.35361L332.32721,116.64162L333.33513,117.36163L334.05508,117.79363L334.91901,118.22564L335.35098,118.22564L337.22284,118.22564L338.23077,118.08164L338.95071,117.64963L339.23869,117.36163L339.38268,116.64162L339.38268,116.35361L340.5346,115.2016L340.82257,113.90558L341.39853,113.47357L341.54252,113.32957L342.40646,113.18557L344.42231,113.32957L347.59007,113.04157L348.31002,112.89756L348.454,112.89756L348.454,112.75356L348.74198,112.89756L349.17395,112.89756L349.46193,113.04157L349.74991,113.18557L349.8939,113.18557L350.03789,113.18557L350.32587,113.18557L351.04581,113.04157L351.62177,113.04157L352.05374,113.18557L352.4857,113.18557L352.77368,113.32957L353.20565,113.47357L353.63762,113.90558L353.78161,114.04958L354.06959,114.19358L354.21358,114.48159L354.35756,114.62559L354.93352,115.4896L355.2215,116.20961L354.78953,117.79363L354.78953,117.93763L354.64554,118.08164L354.50155,118.36964L354.35756,119.80966L354.35756,120.38567L354.78953,121.10568L355.50948,121.53768L355.65347,121.68169L355.94145,121.68169L357.66932,122.11369L358.67724,122.25769L359.54118,122.5457L359.82916,122.5457L360.11713,122.5457L361.26905,122.5457L362.42096,122.6897L362.85293,122.9777L363.42889,123.26571L364.00484,123.98572L364.29282,124.41772L364.43681,124.56173L364.86878,124.99373L365.30075,125.28174L365.8767,125.56974L366.02069,125.56974L366.30867,125.71374L366.45266,125.71374L366.88463,125.85774L367.02862,125.85774L370.05239,126.57775L370.48436,126.57775L370.62835,126.57775L370.91633,126.28975L371.63628,125.71374L372.50021,125.42574L373.07617,124.99373L373.07617,124.41772L372.93218,123.98572L372.93218,123.84172L372.93218,123.69771L372.93218,123.55371L372.93218,122.9777L373.22016,122.25769L373.65212,121.82569L375.38,121.24968L377.39585,121.24968L377.53983,121.24968L378.25978,120.96168L378.69175,120.81767L378.69175,120.67367L378.83574,120.52967L379.12372,120.24167L379.98765,119.37765L382.0035,118.65764L383.87536,117.93763L384.59531,117.79363L387.18712,118.51364L387.61908,118.65764L391.65078,118.51364L392.94669,118.65764L395.3945,118.94565L396.11445,118.94565L396.25844,118.94565L397.26636,118.65764L398.56227,118.51364L398.70626,118.51364L399.57019,118.51364L400.29014,118.51364L402.44998,118.08164L403.02593,117.64963L403.02593,117.50563L403.16992,117.36163L403.16992,117.21762L403.74588,115.92161L404.32184,115.2016L404.60982,115.05759L405.04178,114.76959L406.33769,114.91359L408.20955,114.76959L409.64944,114.76959L411.5213,114.62559L411.66529,114.62559L411.95327,114.48159L414.11311,113.04157L414.83305,112.75356L415.40901,112.75356L415.69699,112.75356L417.42486,112.89756L417.71284,112.89756L418.14481,112.75356L418.57677,112.75356L418.86475,112.60956L419.00874,112.60956L419.15273,112.60956L419.44071,112.46556L420.16066,112.17755L420.16066,112.03355L420.44863,111.88955L420.8806,111.74555L421.60055,111.31354L422.03252,111.31354L422.60847,111.16954L423.18443,110.88154L423.47241,110.73753L425.48826,109.44152L426.92815,109.00951L427.21613,108.86551L428.944,108.5775L429.80794,108.2895L430.38389,107.71349L430.81586,106.84948L431.10384,105.98547L431.39182,105.69746L431.53581,105.55346L431.6798,105.12146L432.39974,104.54545L432.83171,104.11344L433.26368,104.25744L434.41559,104.68945L435.42352,105.12146L435.85548,105.12146L436.28745,105.12146L437.0074,104.97745L437.72734,105.12146L438.3033,105.26546L438.87926,105.84147L439.16724,105.98547L439.45522,105.84147L440.89511,105.12146L441.75904,104.83345L443.19894,104.68945L443.91888,104.83345L444.35085,104.97745L445.64675,104.40145L446.79867,104.40145L447.37462,104.11344L448.23856,103.96944L449.24649,103.68144L449.67845,103.10543L449.82244,102.96143L449.96643,102.38542L450.11042,102.24142L450.25441,102.09741L450.83037,101.66541L451.11835,101.52141L451.83829,101.52141L452.55824,101.2334L452.84622,100.8014L452.99021,100.65739L452.99021,100.36939L453.1342,100.22539L453.42217,100.08139L453.99813,100.08139L454.86207,99.93738L455.29403,99.79338L455.726,99.50538L456.15797,99.50538L456.44595,99.50538L457.30988,99.93738L457.88584,100.08139L458.4618,99.93738L458.89377,99.64938L458.89377,99.50538L459.61371,99.36138L460.76563,99.21737L461.34158,99.21737L461.91754,99.21737L464.22137,98.49736L465.22929,98.49736L466.81317,97.63335L467.96509,97.05734L468.54105,96.48134L469.117,96.04933L469.54897,96.04933L470.5569,95.61732L471.27684,94.75331L471.42083,94.60931L471.56482,94.1773L471.70881,94.0333L471.8528,93.7453L471.99679,93.45729L472.28477,93.31329L473.00471,93.02529L474.73258,93.02529L475.16455,92.88129L476.17248,92.73728L476.89242,92.73728L477.46838,92.73728L477.90035,92.73728L478.62029,92.44928L478.90827,92.30528L480.06019,91.87327L481.50008,91.87327L482.508,91.87327L483.08396,91.72927L484.23587,91.72927L485.2438,91.58527L485.96375,91.29727L486.10774,91.29727L486.97167,91.15326L487.54763,91.15326L488.26757,91.29727L491.14736,91.44127L491.57933,91.29727L492.73124,91.00926L493.73917,90.86526L494.45911,90.86526L496.76294,91.58527L497.3389,91.87327L497.48289,92.01728L498.77879,93.02529L499.21076,93.31329L499.64273,93.45729L500.07469,93.7453L500.50666,94.0333L501.22661,94.32131L501.80256,94.60931L502.23453,94.89731L502.52251,95.04132L503.38645,95.18532L504.10639,95.32932L504.53836,95.61732L504.97033,95.90533L505.54629,96.76934L505.69027,96.91334L505.97825,97.20135L506.6982,98.06536L506.84219,98.20936L507.9941,98.78537L508.57006,99.21737L508.71405,99.36138L508.71405,99.79338L508.28208,100.22539L508.13809,100.22539L507.9941,100.36939" fill="none" stroke="#6E6E6E" stroke-linecap="round" stroke-linejoin="round" stroke-miterlimit="10" stroke-width="0.43197"></path><path clip-path="url(#SVG_CP_1)" d="M507.9941,100.36939L507.13017,100.36939L506.55421,100.51339L505.69027,100.9454L505.4023,101.66541L505.83426,103.39343L505.69027,103.96944L505.54629,104.40145L505.25831,104.68945L505.11432,104.83345L504.97033,105.12146L504.68235,105.98547L504.10639,106.56148L503.81841,106.84948L503.24246,107.13748L502.95448,107.42549L502.81049,107.71349L502.81049,108.1455L502.81049,108.5775L502.37852,109.15351L501.80256,110.59353L501.3706,111.02554L500.65065,111.45754L499.35475,112.60956L498.49081,113.47357L497.91485,114.19358L497.62688,115.05759L497.48289,115.3456L496.90693,116.49761L496.33097,117.21762L496.04299,117.36163L494.74709,118.36964L494.17113,118.65764L493.3072,118.80165L493.01922,118.94565L493.16321,119.37765L493.88316,120.81767L494.17113,121.68169L494.31512,122.6897L495.03507,125.42574L495.899,126.43375L497.05092,127.87377L497.48289,128.44978L497.77087,129.31379L497.91485,130.46581L498.05884,131.04182L498.05884,131.32982L498.20283,132.33783L498.49081,134.64187L498.34682,135.50588L498.05884,135.93788L497.91485,136.36989L497.3389,136.9459L496.33097,138.09791L495.32305,139.24993L494.89108,140.54595L494.89108,140.83395L494.89108,141.40996L495.03507,141.84197L495.46704,142.41797L496.04299,142.99398L497.05092,144.578L497.77087,145.29801L498.34682,146.16202L498.6348,147.17004L498.34682,149.61807L499.06677,151.05809L499.21076,151.05809L499.35475,151.6341L499.35475,152.35411L499.35475,152.49811L499.21076,152.64211L499.06677,152.78612L498.77879,152.78612L498.6348,152.78612L498.49081,152.49811L498.34682,152.49811L498.05884,152.35411L497.77087,152.49811L497.91485,153.21812L498.20283,153.79413L498.6348,155.09015L499.21076,156.81817L499.21076,157.82619L499.35475,158.8342L499.49874,159.1222L499.64273,159.55421L500.50666,160.85023L500.65065,161.28223L500.65065,161.85824L500.50666,162.00224L499.9307,162.57825L499.49874,163.15426L499.21076,163.58627L499.06677,164.01827L498.92278,164.88228L498.77879,166.1783L499.06677,167.04231L499.21076,168.05033L498.92278,169.05834L498.6348,169.63435L498.20283,170.93037L497.19491,172.08238L496.90693,172.37039L496.33097,172.9464L495.899,173.66641L495.899,174.24241L495.899,174.81842L496.47496,176.83445L496.90693,177.26646L497.62688,177.69846L498.05884,178.27447L498.34682,178.99448L498.92278,180.4345L499.06677,181.15451L498.92278,181.44251L498.92278,182.30653L498.34682,183.17054L498.20283,183.74655L498.05884,184.61056L498.05884,185.18657L498.05884,185.90658L497.48289,186.33858L496.90693,186.91459L496.33097,187.05859L496.04299,187.05859L495.32305,187.6346L495.03507,188.78662L495.03507,189.21862L494.89108,189.65063L494.31512,189.93863L493.73917,189.50663L493.16321,189.50663L492.73124,189.65063L492.44326,190.08263L492.01129,190.37064L491.57933,190.51464L490.71539,189.93863L489.99545,189.65063L489.56348,189.65063L486.39571,189.50663L485.53178,189.79463L484.81183,190.22664L484.09189,190.51464L483.22795,190.37064L482.65199,190.37064L479.62822,191.66666L478.33232,192.09866L477.46838,192.24266L475.45253,192.67467L473.29269,192.81867L471.56482,192.53067L471.56482,192.38667L471.42083,192.38667L470.12493,192.38667L469.54897,192.38667L469.117,192.24266L468.97301,192.24266L468.54105,192.53067L468.10908,192.96267L467.8211,192.96267L466.81317,192.67467L466.38121,192.38667L465.22929,191.95466L463.64541,191.52265L463.35743,191.37865L463.21344,191.23465L462.78148,190.65864L462.34951,190.37064L461.77355,189.93863L460.62164,189.65063L459.90169,189.50663L458.89377,189.50663L456.87792,189.93863L456.15797,190.22664L455.726,190.37064L454.86207,191.09065L454.28611,191.95466L453.99813,192.81867L453.99813,193.10668L452.99021,194.40269L452.12627,195.1227L450.68638,197.28273L450.3984,197.57074L450.25441,197.57074L449.82244,198.14674L449.39047,198.72275L448.81452,199.01076L448.09457,199.01076L447.95058,199.15476L447.51861,200.01877L447.51861,201.02678L448.23856,202.3228L448.38255,202.75481L448.38255,203.90682L448.38255,204.33883L448.23856,204.48283L448.23856,205.34684L448.23856,207.07487L447.80659,210.24291L447.37462,211.10692L447.08665,211.39493L446.79867,211.53893L446.51069,211.97094L446.51069,212.40294L446.51069,213.41096L445.93473,215.28298L445.93473,215.42698L445.93473,216.00299L445.79074,216.579L445.50276,216.867L445.0708,217.44301L444.49484,217.58701L443.77489,217.73102L443.6309,217.87502L443.6309,218.01902L443.77489,218.88303L443.6309,219.74704L443.91888,221.61907L443.91888,221.90707L443.91888,222.48308L443.6309,222.77109L443.48691,223.05909L443.05495,223.9231L442.91096,224.78711L442.91096,224.93112L442.91096,225.50712L442.62298,226.08313L441.90303,227.37915L441.75904,228.24316L441.61505,229.25118L441.32708,229.97119L440.60713,230.54719L440.31915,230.9792L439.59921,231.84321L439.16724,233.85924L438.44729,235.01126L437.72734,235.73127L436.86341,236.16327L435.99947,236.88328L435.42352,237.60329L435.42352,238.0353L435.42352,238.4673L435.42352,238.61131L435.42352,239.33132L434.70357,240.48333L432.83171,241.92335L431.6798,242.93137L431.82379,246.67542L431.96777,248.11544L432.11176,248.83545L432.11176,250.56347L432.11176,251.71549L431.96777,252.14749L431.82379,252.8675L431.39182,253.87552L430.81586,254.73953L430.52788,255.17153L430.2399,256.03555L429.37597,257.04356L428.80001,258.19558L427.50411,260.0676L426.49618,261.65162L426.49618,261.79563L425.05629,263.66765L424.76831,264.38766L424.33634,265.10767L424.33634,266.69169L424.9123,268.99573L425.20028,270.57975L425.20028,271.73176L425.20028,272.16377L424.19235,274.1798L422.89645,275.33181L422.1765,275.76382L421.45656,276.33983L421.31257,276.33983L419.87268,278.78786L419.00874,279.36387L417.85683,279.93988L417.71284,280.51589L417.71284,281.6679L417.71284,283.25192L417.56885,283.68393L416.99289,284.54794L416.70491,285.12395L416.27295,285.84396" fill="none" stroke="#6E6E6E" stroke-linecap="round" stroke-linejoin="round" stroke-miterlimit="10" stroke-width="0.43197"></path><path clip-path="url(#SVG_CP_1)" d="M151.90867,165.02629L152.34064,164.59428L152.62861,164.59428L153.06058,164.88228L154.64446,166.46631L156.08436,168.33833L156.22835,168.77034L156.94829,169.63435L157.23627,169.92235L158.53217,171.93838L159.10813,174.53042L159.39611,175.10643L159.68409,176.40244L159.5401,177.26646L159.10813,178.70648L159.10813,179.57049L159.39611,180.5785L159.68409,181.44251L159.82808,181.73052L160.40403,183.02654L160.69201,184.46656L160.69201,185.33057L160.54802,186.33858L159.97207,187.6346L159.97207,189.93863L160.11606,190.37064L161.12398,192.96267L162.27589,195.26671L162.85185,197.28273L163.42781,198.29075L164.14775,199.15476L164.00377,200.30677L163.42781,203.04281L163.71579,204.33883L163.85978,206.21086L164.00377,206.78686L164.57972,207.93888L164.72371,208.37089L164.57972,209.2349L164.29174,209.6669L163.85978,211.10692L163.85978,211.68293L164.14775,212.83495L164.8677,214.13097L165.58765,214.85098L165.87563,215.13898L167.45951,215.13898L168.32344,214.99498L169.61935,214.70697L171.20323,214.56297L171.6352,214.70697L172.9311,215.28298L174.08301,215.57099L174.80296,216.00299L175.37892,216.291L175.6669,216.579L176.09886,216.867L177.53876,217.44301L178.40269,218.30702L178.69067,218.73903L179.12264,221.76307L179.12264,224.78711L179.26663,227.09115L178.54668,228.81917L178.40269,229.82718L178.11471,230.25919L177.68274,230.9792L176.53083,230.8352L175.95487,230.8352L174.80296,231.2672L172.06716,232.27522L170.77126,232.99523L169.76334,234.29125L167.74749,236.01927L167.17153,236.45128L166.30759,237.45929L165.44366,238.4673L163.42781,240.33933L162.56387,241.77935L161.84393,242.49936L161.12398,243.07537L160.97999,243.36337L160.54802,243.65138L159.39611,243.93938L157.81223,244.08338L157.09228,244.22738L155.5084,244.22738L154.64446,244.22738L153.49255,244.22738L152.48462,244.37139L150.90074,244.94739L150.32479,245.3794L149.17287,246.53142L148.45293,247.53943L148.02096,248.40344L147.30101,249.26745L146.58107,250.70747L146.00511,251.42748L145.28516,252.00349L144.56522,252.29149L143.55729,252.5795L142.69336,252.5795L142.26139,252.4355L141.39745,252.00349L140.82149,251.71549L140.10155,251.57148L138.80565,251.42748L137.07777,250.85147L135.63788,250.85147L134.91794,250.56347L133.76602,250.70747L133.04607,250.85147L131.03023,250.99548L130.0223,250.85147L128.7264,251.13948L126.99853,250.85147L125.70262,250.70747L124.55071,250.41947L124.26273,250.27547L123.68677,250.13146L123.25481,249.98746L122.82284,249.98746L121.38294,249.41146L120.23103,248.97945L116.48731,247.10742L115.3354,246.81942L114.32747,246.96342L113.46354,247.39543L112.88758,247.68343L111.3037,249.41146L111.15971,249.98746L110.87173,250.27547L109.43184,251.13948L107.99194,252.4355L106.98402,254.01952L105.68812,254.88353L104.68019,255.17153L103.2403,255.02753L102.23237,254.73953L101.36844,254.59553L100.36051,253.58751L99.64057,252.5795L99.2086,252.00349L99.2086,251.57148L99.78456,250.27547L99.92855,250.13146L100.79248,248.69145L100.64849,248.25944L99.2086,248.25944L98.05669,248.83545L97.04876,248.97945L95.1769,248.54744L94.02499,248.97945L92.87307,248.69145L92.15313,248.69145L90.71323,249.26745L88.55339,249.12345L87.1135,249.69946L86.96951,249.84346L86.82552,249.98746L85.96159,249.69946L85.09765,249.69946L82.50585,249.12345L80.34601,249.69946L79.33808,250.27547L76.02633,250.85147L73.14654,250.27547L71.70665,249.69946L70.55474,248.54744L69.40282,247.97144L68.82687,247.53943L68.53889,247.39543L68.10692,246.96342L66.81102,245.0914L66.52304,244.65939L65.94708,244.65939L65.22713,244.94739L63.78724,245.81141L63.21128,246.38741L62.77932,247.39543L62.63533,248.40344L62.63533,249.41146L63.0673,250.56347L63.35527,251.71549L63.21128,252.29149L62.92331,252.7235L62.05937,253.44351L61.19544,253.87552L60.76347,253.87552L60.04352,254.16352L58.74762,254.45152L58.17166,254.73953L56.01182,255.02753L55.14789,255.45954L54.71592,255.60354L54.13996,255.31554L53.564,255.17153L52.84406,255.17153L50.39624,255.45954L49.38832,255.74754L49.10034,255.74754L48.2364,256.03555L47.51646,256.46755L46.36454,256.75556L45.50061,257.33156L44.63667,257.90757L42.76481,258.91559L41.6129,259.20359L41.18093,259.20359L40.173,259.05959L39.30907,259.05959L37.86918,258.62758L35.42136,258.33958L34.70141,258.33958L33.83748,258.48358L31.82163,258.62758L30.8137,258.62758L29.80578,258.77158L29.94977,258.48358L30.66971,257.47557L31.10168,257.04356L31.24567,256.89956L32.25359,255.74754L32.82955,254.30752L32.82955,252.29149L33.11753,250.13146L33.83748,248.11544L34.55742,247.10742L35.42136,245.2354L36.1413,244.22738L36.86125,242.93137L37.43721,242.35536L38.44513,240.91534L39.02109,239.61932L39.16508,239.47532L39.30907,239.04331L40.74896,236.73928L40.89295,236.45128L41.18093,235.73127L41.32492,235.29926L41.32492,234.57925L40.89295,233.42723L39.30907,231.84321L39.02109,231.55521L38.15715,230.40319L37.86918,229.68318L38.44513,228.53117L39.02109,227.81116L39.59705,226.65914L40.46098,223.9231L42.18885,220.46705L43.77273,218.30702L44.34869,217.87502L45.06864,217.58701L45.78858,217.73102L46.65252,218.16302L47.22848,218.59503L48.52438,220.32305L49.38832,220.89906L49.82028,220.89906L50.68422,221.04306L51.54815,220.75506L52.70007,220.03505L53.27603,219.60304L54.57193,219.17104L55.43586,218.59503L56.15581,218.01902L56.87576,217.01101L57.01975,216.867L57.30773,216.291L57.45171,215.13898L57.73969,214.27497L58.02767,213.84296L58.60363,213.26695L59.61155,212.40294L60.3315,211.97094L63.64325,209.5229L66.66703,207.79488L67.81894,206.78686L68.53889,205.92285L68.68288,205.49085L68.82687,205.49085L69.25883,204.91484L69.83479,204.48283L71.56266,203.76282L71.85064,203.47482L72.4266,202.4668L73.14654,201.8908L73.7225,201.45879L76.4583,200.45078L77.32223,200.30677L77.89819,200.30677L79.48207,200.16277L79.77005,200.16277L80.63398,199.73077L81.06595,199.58676L82.21787,198.86675L82.50585,198.29075L82.79382,197.71474L82.79382,196.56272L82.50585,195.84271L82.36186,194.5467L82.36186,194.11469L82.36186,192.96267L82.64983,192.24266L83.0818,191.66666L83.94574,190.94665L84.66568,190.80264L85.67361,190.80264L86.10558,190.80264L87.1135,191.23465L87.68946,191.37865L88.55339,192.38667L88.69738,192.53067L88.98536,192.96267L89.70531,193.82669L90.13728,194.8347L90.71323,195.26671L91.57717,195.84271L93.01706,195.98672L93.73701,195.84271L95.1769,195.26671L95.60887,194.9787L96.04084,194.11469L96.18482,193.39468L95.89685,192.67467L95.60887,192.24266L95.1769,190.80264L95.03291,190.22664L94.88892,190.08263L94.88892,188.21061L94.60094,186.91459L94.74493,185.90658L94.88892,185.18657L96.04084,184.75456L96.90477,184.61056L98.63264,185.04256L99.35259,185.90658L100.07253,187.6346L100.64849,188.21061L101.65642,188.93062L103.09631,189.21862L103.52828,189.36262L104.5362,189.21862L105.40014,188.93062L105.54413,188.64261L105.83211,188.49861L106.69604,187.7786L107.84795,187.05859L108.27992,186.91459L109.28785,186.05058L109.71982,185.90658L110.72774,185.76257L111.44769,185.90658L112.16763,186.19458L112.74359,186.62659L113.17556,186.91459L114.03949,188.21061L114.90343,189.07462L116.34332,189.93863L117.06327,190.22664L118.21518,190.51464L118.93513,190.65864L119.51108,190.65864L120.663,190.51464L120.95098,190.08263L121.09497,189.36262L121.23896,189.07462L120.95098,187.6346L120.663,187.05859L120.51901,186.05058L120.23103,185.61857L120.08704,183.74655L120.08704,182.45053L120.51901,181.44251L120.663,180.5785L121.09497,180.00249L121.23896,179.85849L121.81491,179.42649L122.39087,179.13848L122.82284,178.99448L123.68677,178.85048L125.84661,178.99448L126.56656,178.99448L126.85454,178.99448L127.14252,179.13848L127.71847,179.13848L128.58241,179.57049L128.7264,179.57049L129.44634,179.85849L129.87831,179.85849L131.60618,179.57049L132.7581,178.85048L133.04607,178.56247L133.33405,178.27447L133.47804,178.13047L133.91001,177.26646L134.054,176.69045L134.19799,176.11444L133.62203,174.81842L132.61411,173.5224L132.61411,173.3784L131.89416,171.93838L131.46219,170.93037L131.03023,170.21036L130.0223,167.33032L130.0223,166.89831L130.0223,166.61031L130.16629,166.0343L130.74225,165.02629L131.03023,164.59428L132.18214,163.87427L133.04607,163.44226L133.62203,163.15426L133.76602,163.15426L134.48597,163.01026L136.06985,162.72225L136.64581,162.57825L138.22969,162.14625L138.94963,161.85824L139.3816,161.85824L139.66958,161.71424L140.82149,162.14625L141.68543,162.00224L142.1174,162.00224L142.69336,162.14625L143.26931,162.43425L144.13325,162.86626L144.99718,163.44226L145.86112,164.30628L146.58107,165.31429L146.72505,165.60229L147.73298,166.75431L147.87697,166.75431L148.30894,167.18632L149.02888,167.47432L149.74883,167.47432L150.46878,167.33032L150.75675,167.04231L151.18872,166.61031L151.33271,166.0343L151.62069,165.7463L151.76468,165.45829L151.90867,165.02629z" fill="#FCB6FC" fill-rule="evenodd" id="madhyapur-thimi" stroke="#6E6E6E" stroke-linecap="round" stroke-linejoin="round" stroke-miterlimit="10" stroke-width="0.43197"></path><path clip-path="url(#SVG_CP_1)" d="M279.48315,267.84371L280.77905,267.84371L283.08288,267.2677L284.81075,267.4117L285.24272,267.55571L286.39463,267.55571L287.40256,267.69971L288.26649,267.84371L288.98644,267.98771L290.8583,269.13973L292.73016,269.71574L294.17005,270.43575L294.31404,270.43575L295.32197,270.72375L297.33782,270.57975L298.05776,270.72375L300.50558,270.72375L303.09739,271.01175L303.81733,271.01175L304.96925,271.29976L307.56106,271.58776L308.281,271.44376L310.44084,271.44376L310.58483,271.58776L311.16079,272.01977L312.45669,273.60379L312.88866,274.4678L314.18456,276.05182L315.19249,276.33983L316.48839,276.91584L317.6403,277.20384L319.51216,277.63585L320.66408,278.06785L321.09605,278.35586L321.52801,279.07587L322.39195,279.79588L324.11982,280.65989L324.55179,280.80389L325.99168,281.2359L326.56764,281.5239L328.00753,281.5239L328.72748,281.8119L329.30343,281.8119L329.59141,281.5239L330.02338,281.2359L330.31136,281.09189L330.88732,281.09189L332.32721,280.80389L334.63104,280.94789L336.07093,280.80389L337.22284,280.22788L337.65481,279.93988L338.66274,278.49986L339.23869,278.06785L339.95864,277.77985L341.11055,277.77985L341.8305,278.06785L341.97449,278.21185L342.83842,279.50787L342.83842,280.37188L343.55837,280.94789L343.84635,281.09189L347.73406,281.09189L348.88597,281.09189L349.8939,281.09189L351.04581,280.80389L352.19773,280.65989L353.49363,280.94789L354.78953,281.5239L355.79746,282.24391L356.5174,282.53191L358.53325,284.11594L361.26905,285.41195L361.98899,285.55596L363.42889,285.98796L364.43681,286.13196L365.44474,285.98796L365.73272,285.69996L366.74064,285.12395L368.03654,284.69194L368.75649,284.97995L368.90048,284.83595L369.62043,285.12395L370.48436,284.97995L370.91633,284.69194L371.20431,284.69194L371.49229,284.25994L371.92425,283.53993L371.92425,281.6679L372.21223,281.2359L372.50021,280.94789L373.36415,280.65989L374.37207,280.51589L375.23601,280.65989L376.6759,281.09189L377.10787,281.09189L379.26771,281.5239L379.55568,281.6679L380.13164,281.8119L380.85159,282.24391L380.99558,282.38791L381.13957,282.67592L380.7076,283.53993L380.99558,283.97193L382.29148,284.54794L382.57946,284.97995L383.01143,285.55596L383.87536,286.13196L384.59531,286.70797L385.60323,287.28398L386.32318,287.42798L386.75515,287.71599L386.89914,288.14799L386.75515,288.58L387.47509,289.30001L387.76307,289.44401L389.20296,289.87602L389.63493,290.16402L390.35488,290.30802L391.50679,290.74003L392.94669,290.74003L393.81062,290.59603L394.81855,290.59603L395.53849,290.88403L396.25844,291.31604L398.99423,291.74804L399.71418,291.60404L400.86609,291.02803L401.44205,290.45202L401.87402,290.30802L403.02593,290.30802L403.74588,290.16402L404.46583,289.87602L405.32976,289.44401L406.1937,289.30001L408.35354,288.724L409.21747,288.00399L410.2254,287.57198L411.23332,286.56397L412.09726,285.98796L413.24917,285.41195L414.11311,285.12395L414.83305,285.12395L415.553,285.41195L416.27295,285.84396L416.12896,286.13196L415.98497,287.71599L415.553,289.30001L415.40901,291.46004L415.69699,292.32405L416.70491,293.76407L417.13688,294.34008L418.14481,295.34809L418.57677,295.9241L420.01667,296.93211L421.45656,298.94814L421.60055,299.66815L421.88853,299.95616L421.60055,300.96417L421.02459,301.82818L420.44863,302.26019L418.86475,303.70021L415.98497,305.28423L414.97704,306.29224L414.54507,306.58025L413.24917,307.44426L412.52922,307.73226L411.95327,307.73226L411.5213,308.02027L411.37731,308.02027L410.94534,308.16427L410.08141,308.45227L409.79343,308.74028L409.07348,309.02828L407.20162,310.03629L406.62566,310.4683L406.33769,310.90031L405.18577,312.05232L404.32184,312.77233L402.88194,313.49234L401.44205,314.06835L400.72211,314.35635L399.28221,315.36437L396.40243,317.8124L395.68248,318.53241L393.66663,320.54844L392.94669,321.41245L392.8027,321.70046L392.65871,322.13246L392.22674,322.99647L391.79477,323.57248L391.21881,324.29249L390.35488,325.58851L388.33903,329.04456L387.61908,329.62057L385.89121,329.90857L384.88329,329.47656L384.30733,329.18856L383.44339,328.75655L382.0035,327.31653L380.41962,324.43649L380.13164,323.14048L380.13164,321.98846L379.84366,321.26845L379.4117,321.12445L377.82781,321.55645L376.81989,321.55645L376.09994,322.13246L375.52399,322.85247L375.23601,323.71648L375.23601,324.29249L375.66797,324.8685L376.09994,325.87651L375.81196,328.03654L375.81196,328.46855L375.23601,329.47656L375.66797,329.76457L376.24393,330.05257L376.53191,330.34058L377.25186,330.91658L376.24393,332.3566L374.80404,333.65262L372.78819,335.95665L372.35622,336.53266L371.3483,337.68468L370.05239,339.4127L369.33245,340.27671L368.75649,340.99672L368.75649,341.14073L368.32452,341.57273L367.60458,342.00474L367.3166,342.14874L366.45266,342.86875L365.8767,343.44476L365.73272,343.73276L365.01277,344.88478L364.72479,346.03679L364.5808,346.90081L364.14883,347.76482L361.41304,349.49284L360.69309,349.92485L359.82916,350.06885L358.67724,350.35685L357.23735,350.78886L356.22942,351.50887L355.79746,351.79687L355.79746,352.51688L355.36549,353.3809L355.2215,353.9569L355.2215,354.24491L354.93352,355.54092L354.50155,356.40494L352.77368,357.98896L351.76576,358.13296L351.33379,358.27696L350.75783,358.27696L349.8939,359.14097L349.31794,360.43699L348.74198,361.87701L348.02204,363.74904L347.87805,363.89304L347.59007,364.32505L345.8622,366.48508L344.85427,368.5011L344.71028,368.78911L344.27832,369.36512L342.40646,372.24516L341.8305,372.82116L341.39853,373.54117L340.39061,374.26118L339.67066,375.1252L338.95071,375.5572L337.7988,376.13321L336.79087,376.42121L336.07093,376.70922L334.19907,376.85322L333.04715,376.85322L332.32721,376.99722L332.03923,376.99722L331.17529,376.99722L330.31136,376.85322L329.87939,376.70922L329.7354,376.56522L329.44742,376.13321L329.15944,374.83719L329.01545,374.69319L328.58349,373.54117L328.58349,372.96517L328.72748,372.53316L328.58349,371.81315L327.86354,370.94914L327.14359,370.22913L326.85562,369.94112L326.56764,369.50912L326.42365,369.07711L326.42365,368.2131L326.85562,367.34909L326.85562,367.06108L327.14359,366.62908L326.99961,366.34107L326.42365,365.90907L325.7037,365.33306L323.97583,364.03704L323.25588,362.88503L322.82392,362.45302L322.67993,362.45302L322.24796,362.02101L321.24003,360.725L320.66408,359.71698L319.80014,358.56497L319.51216,358.27696L318.79222,357.26895L317.6403,356.11693L317.49631,355.97293L317.06435,355.39692L316.05642,353.9569L315.19249,351.36487L314.76052,350.21285L314.47254,349.63684L313.75259,348.62883L313.17664,347.47681L312.88866,346.03679L312.74467,345.46079L312.74467,345.02878L312.02472,344.16477L311.44877,345.02878L310.44084,345.60479L309.00095,347.33281L308.281,347.76482L307.70504,348.48483L307.56106,348.62883L307.27308,349.20484L305.83318,350.78886L304.82526,351.65287L303.09739,352.80489L302.23345,353.6689L301.80149,353.6689L301.22553,354.10091L301.08154,354.24491L300.36159,354.82092L300.2176,355.25292L299.06569,356.98094L298.48973,358.42096L298.05776,359.14097L297.76979,360.00499L296.90585,361.301L295.75394,362.59702L294.74601,363.46103L293.88208,364.03704L292.87415,364.32505L292.44218,364.46905L290.71431,364.46905L289.85038,364.90105L288.98644,364.90105L288.26649,365.04506L286.10666,365.33306L283.37086,365.18906L282.07496,365.18906L279.91512,365.76507L277.61129,366.62908L276.60337,367.06108L274.44353,367.34909L273.4356,367.49309L273.14762,367.63709L272.71566,368.0691L271.85172,368.93311L271.56374,369.79712L271.13177,370.51713L270.69981,371.52515L270.41183,372.53316L270.41183,373.25317L270.41183,373.82918L270.12385,374.26118L269.11592,375.84521L268.82795,376.27721L268.97193,376.42121L268.68396,376.99722L267.96401,378.00524L265.94816,380.02126L264.0763,381.60529L262.7804,382.3253L260.76455,382.7573L258.46072,383.04531L257.16482,383.33331L256.44487,383.33331L252.70115,382.6133L250.54131,382.18129L241.46999,378.29324L240.31807,378.58124L238.5902,380.16527L237.00632,382.6133L235.42244,384.62933L234.70249,386.50135L234.41451,386.93336L233.98254,387.22136L229.51888,388.80539L227.935,389.9574L227.50303,390.1014L225.91915,390.82141L224.62324,391.10942L222.60739,390.67741L222.03144,390.67741L221.1675,390.82141L221.02351,390.82141L220.01559,391.10942L219.43963,390.96542L219.15165,390.96542L218.4317,390.1014L217.42378,390.24541L216.99181,390.38941L216.27187,390.96542L215.11995,391.68543L214.11203,391.68543L212.81612,391.25342L211.95219,390.67741L210.22432,388.80539L209.79235,388.37338L209.0724,388.22938L208.35246,387.94137L205.90464,386.21335L205.32868,385.78134L205.18469,385.63734L202.88086,384.48533L202.30491,384.05332L201.009,383.04531L199.28113,380.45327L198.99315,380.16527L197.69725,377.14122L197.40927,376.99722L197.12129,376.70922L195.53741,375.1252L194.67348,374.54919L193.23358,373.39717L190.64178,371.95715L189.77784,371.52515L189.20189,371.23714L188.33795,370.94914L186.75407,370.22913L185.89013,369.65312L185.0262,368.78911L184.45024,368.3571L184.01827,368.0691L183.73029,367.63709L183.5863,367.06108L183.29833,366.05307L181.42647,365.18906L180.70652,365.18906L179.26663,364.75705L178.40269,364.18104L177.97072,363.31703L177.53876,362.74102L176.53083,360.725L176.38684,360.14899L176.09886,359.28498L175.81088,358.56497L175.37892,357.98896L174.80296,357.26895L174.51498,356.98094L174.08301,356.69294L173.21908,356.54894L172.06716,356.69294L171.05924,356.98094L169.90732,357.55695L169.47536,357.84496L168.8994,357.98896L168.03546,358.13296L166.88355,358.27696L165.01169,358.13296L164.00377,357.98896L163.85978,357.84496L163.28382,357.55695L162.56387,357.55695L161.69994,357.70095L160.69201,357.98896L158.82015,357.70095L156.66031,357.70095L155.79638,357.41295L154.64446,356.54894L153.20457,356.11693L152.62861,355.68493L151.33271,354.38891L151.04473,354.24491L150.61276,353.9569L149.74883,353.09289L149.46085,352.66089L149.17287,352.37288L147.15702,351.07686L146.00511,349.92485L145.71713,349.63684L144.99718,349.06084L144.42123,348.62883L143.98926,348.34083L143.55729,347.62082L143.12532,346.7568L142.83734,346.03679L142.54937,345.02878L142.26139,344.59677L141.82942,344.02077L141.25346,343.15675L140.96548,342.29274L140.82149,341.28473L139.23761,339.4127L139.09362,339.1247L138.37368,337.97268L137.79772,336.82067L137.07777,335.38065L136.93378,334.66064L136.93378,333.36462L136.93378,332.93261L136.50182,332.2126L136.06985,331.20459L136.06985,330.91658L135.63788,328.61255L135.3499,327.74854L134.77395,326.88453L134.48597,326.02052L134.19799,323.57248L134.054,322.85247L133.62203,322.27646L133.04607,321.84446L132.61411,322.27646L131.89416,322.56447L131.17421,322.99647L129.87831,323.71648L129.15836,324.14849L128.00645,325.0125L128.00645,325.1565L127.43049,325.58851L127.14252,325.30051L126.85454,324.8685L126.27858,324.43649L125.27065,323.14048L123.97475,321.98846L121.67092,319.10842L120.95098,317.6684L120.80699,316.80439L120.80699,316.37238L121.09497,315.36437L121.23896,315.07636L121.38294,314.06835L120.95098,312.77233L120.51901,311.90832L119.94305,311.33231L119.79906,311.18831L119.3671,310.90031L118.07119,310.7563L117.63922,310.4683L116.91928,310.3243L116.05534,310.3243L114.61545,310.3243L114.03949,310.1803L113.46354,309.89229L112.5996,308.74028L112.31162,308.59627L112.02364,308.59627L111.44769,308.16427L109.14386,307.58826L107.84795,307.44426L106.98402,307.44426L106.26407,307.30026L105.83211,307.01225L105.54413,306.86825L104.39221,305.86024L103.96024,305.71623L102.08838,305.57223L101.36844,305.71623L100.07253,305.71623L99.64057,305.71623L97.76871,305.28423L96.18482,304.99622L95.75286,304.99622L95.32089,304.85222L94.74493,304.70822L93.59302,303.98821L93.01706,303.98821L92.29711,304.13221L91.72116,304.13221L91.28919,303.5562L91.1452,302.83619L91.1452,302.69219L91.00121,302.54819L90.71323,302.11619L89.70531,301.82818L89.12935,301.39618L88.55339,300.67617L87.97744,299.66815L87.54547,298.80414L87.1135,298.22813L86.96951,297.94013L86.10558,298.08413L85.38563,298.37213L84.52169,298.51614L83.80175,298.94814L83.36978,299.09214L82.79382,298.94814L81.92989,298.37213L80.92196,297.36412L80.34601,296.93211L78.90611,296.0681L78.47415,295.49209L78.33016,294.62808L78.47415,293.62007L79.33808,291.74804L79.33808,291.60404L79.19409,290.30802L79.33808,289.58801L79.48207,288.436L79.33808,288.14799L79.19409,287.85999L79.0501,287.71599L78.90611,286.70797L79.0501,286.13196L79.33808,285.26795L79.33808,284.11594L79.19409,283.82793L79.0501,283.10792L79.48207,281.5239L79.33808,281.09189L78.33016,280.08388L77.89819,279.65187L77.46622,278.49986L76.89026,278.21185L76.31431,278.21185L75.16239,278.64386L74.29846,279.36387L73.7225,279.93988L73.29053,280.22788L72.28261,281.2359L71.56266,281.6679L71.41867,281.6679L70.84272,281.2359L70.84272,281.09189L69.97878,280.37188L68.97086,279.93988L68.68288,279.79588L67.67495,279.65187L67.09899,279.65187L66.81102,279.79588L66.09107,279.93988L65.94708,279.93988L65.37112,279.50787L65.37112,279.36387L65.37112,278.49986L65.08315,278.06785L64.79517,277.92385L63.93123,277.92385L63.64325,277.77985L62.92331,276.77183L62.05937,276.62783L61.6274,276.33983L61.48341,276.19583L61.19544,275.61982L61.48341,274.75581L61.48341,274.0358L61.33942,273.74779L60.90746,273.17178L60.47549,273.02778L59.61155,273.17178L58.89161,273.60379L58.45964,273.89179L57.88368,274.75581L57.88368,274.89981L57.5957,276.19583L57.45171,276.62783L56.58778,277.20384L56.15581,277.34784L55.0039,277.49184L54.85991,277.49184L54.28395,277.20384L53.99597,276.77183L53.99597,276.48383L54.42794,275.61982L55.14789,275.04381L55.72384,274.6118L56.15581,273.45979L56.87576,272.59578L56.87576,272.16377L56.73177,271.58776L56.87576,271.01175L57.5957,270.86775L58.60363,271.29976L59.17959,271.58776L59.75554,271.58776L60.3315,271.15576L61.05145,269.71574L61.33942,268.70772L61.48341,268.13171L61.6274,267.4117L61.77139,266.9797L61.6274,266.69169L61.19544,266.40369L60.76347,266.54769L60.47549,266.8357L60.18751,266.8357L60.04352,266.40369L59.75554,265.25167L59.46756,264.96367L58.45964,264.53166L58.31565,264.09966L58.31565,263.23565L58.31565,262.94764L58.60363,262.65964L58.74762,262.65964L59.61155,263.52365L59.61155,263.66765L59.89953,263.81165L60.18751,263.81165L60.76347,263.66765L60.90746,263.52365L61.19544,263.09164L61.33942,262.80364L61.19544,262.51564L60.61948,261.93963L59.17959,261.79563L59.0356,261.65162L58.74762,261.50762L58.02767,261.07562L57.5957,260.2116L56.87576,259.7796L56.2998,258.33958L56.01182,257.90757L55.43586,257.04356L55.29188,256.32355L54.71592,255.60354L55.14789,255.45954L56.01182,255.02753L58.17166,254.73953L58.74762,254.45152L60.04352,254.16352L60.76347,253.87552L61.19544,253.87552L62.05937,253.44351L62.92331,252.7235L63.21128,252.29149L63.35527,251.71549L63.0673,250.56347L62.63533,249.41146L62.63533,248.40344L62.77932,247.39543L63.21128,246.38741L63.78724,245.81141L65.22713,244.94739L65.94708,244.65939L66.52304,244.65939L66.81102,245.0914L68.10692,246.96342L68.53889,247.39543L68.82687,247.53943L69.40282,247.97144L70.55474,248.54744L71.70665,249.69946L73.14654,250.27547L76.02633,250.85147L79.33808,250.27547L80.34601,249.69946L82.50585,249.12345L85.09765,249.69946L85.96159,249.69946L86.82552,249.98746L86.96951,249.84346L87.1135,249.69946L88.55339,249.12345L90.71323,249.26745L92.15313,248.69145L92.87307,248.69145L94.02499,248.97945L95.1769,248.54744L97.04876,248.97945L98.05669,248.83545L99.2086,248.25944L100.64849,248.25944L100.79248,248.69145L99.92855,250.13146L99.78456,250.27547L99.2086,251.57148L99.2086,252.00349L99.64057,252.5795L100.36051,253.58751L101.36844,254.59553L102.23237,254.73953L103.2403,255.02753L104.68019,255.17153L105.68812,254.88353L106.98402,254.01952L107.99194,252.4355L109.43184,251.13948L110.87173,250.27547L111.15971,249.98746L111.3037,249.41146L112.88758,247.68343L113.46354,247.39543L114.32747,246.96342L115.3354,246.81942L116.48731,247.10742L120.23103,248.97945L121.38294,249.41146L122.82284,249.98746L123.25481,249.98746L123.68677,250.13146L124.26273,250.27547L124.55071,250.41947L125.70262,250.70747L126.99853,250.85147L128.7264,251.13948L130.0223,250.85147L131.03023,250.99548L133.04607,250.85147L133.76602,250.70747L134.91794,250.56347L135.63788,250.85147L137.07777,250.85147L138.80565,251.42748L140.10155,251.57148L140.82149,251.71549L141.39745,252.00349L142.26139,252.4355L142.69336,252.5795L143.55729,252.5795L144.56522,252.29149L145.28516,252.00349L146.00511,251.42748L146.58107,250.70747L147.30101,249.26745L148.02096,248.40344L148.45293,247.53943L149.17287,246.53142L150.32479,245.3794L150.90074,244.94739L152.48462,244.37139L153.49255,244.22738L154.64446,244.22738L155.5084,244.22738L157.09228,244.22738L157.81223,244.08338L159.39611,243.93938L160.54802,243.65138L160.97999,243.36337L161.12398,243.07537L161.84393,242.49936L162.56387,241.77935L163.85978,242.21136L170.1953,243.79538L170.91525,243.79538L171.92317,244.22738L173.79503,244.80339L174.94695,245.0914L175.37892,245.2354L176.81881,245.5234L179.26663,246.24341L183.01035,246.96342L183.87428,247.25143L185.74614,248.11544L187.04205,248.83545L188.04997,249.55546L189.92183,251.13948L190.06582,251.42748L191.07375,252.00349L192.94561,253.29951L195.82539,254.73953L196.40135,255.02753L197.26528,255.45954L198.84917,256.32355L199.28113,256.32355L201.72895,257.47557L202.16092,257.76357L202.30491,257.90757L203.45682,258.33958L205.32868,259.34759L206.91256,260.35561L209.0724,261.36362L210.22432,261.65162L210.65628,261.79563L211.52022,262.22763L211.95219,262.37163L215.40793,263.23565L219.29564,263.66765L220.01559,263.95566L220.87952,263.95566L223.03936,264.38766L224.91122,264.38766L226.63909,264.67567L228.22297,264.67567L230.23882,264.96367L230.95877,264.96367L232.25467,265.10767L232.97462,265.10767L233.40659,265.10767L233.98254,265.10767L234.70249,265.25167L235.85441,265.25167L237.2943,265.53968L237.58228,265.68368L239.02217,265.82768L240.03009,265.97168L241.03802,266.11569L243.05387,266.25969L243.62982,266.25969L244.63775,266.40369L245.50169,266.11569L246.50961,265.68368L246.94158,265.53968L247.51753,265.25167L247.66152,265.10767L249.3894,264.24366L250.10934,264.09966L251.69322,263.23565L252.98913,262.94764L254.28503,262.80364L255.29295,262.65964L257.59678,262.80364L258.7487,262.94764L263.78832,263.09164L264.65226,262.94764L265.66018,262.94764L266.95608,263.09164L267.67603,263.09164L268.97193,263.37965L271.85172,264.67567L272.1397,264.81967L274.44353,266.11569L275.16347,266.8357L275.73943,267.4117L276.74735,268.13171L278.04326,269.28373L278.61921,270.00374L278.90719,269.42773L279.19517,268.85172L279.48315,267.84371z" fill="#B8E9FC" fill-rule="evenodd" id="suryabinayak" stroke="#6E6E6E" stroke-linecap="round" stroke-linejoin="round" stroke-miterlimit="10" stroke-width="0.43197"></path></g><g id="Labels"><g id="BHAKTAPUR_palika_-_Default"><g clip-path="url(#SVG_CP_1)" fill="#000000" font-family="'Arial'" font-size="1" font-weight="400" kerning="0"><text text-anchor="start" transform="matrix(7.91941 0 0 7.92011 281.13903 178.75612)"><tspan direction="ltr" unicode-bidi="embed" x="0 ">C</tspan><tspan direction="ltr" unicode-bidi="embed" x="0.72734 ">h</tspan><tspan direction="ltr" unicode-bidi="embed" x="1.29102 ">a</tspan><tspan direction="ltr" unicode-bidi="embed" x="1.83653 ">n</tspan><tspan direction="ltr" unicode-bidi="embed" x="2.40021 ">g</tspan><tspan direction="ltr" unicode-bidi="embed" x="2.9639 ">u</tspan><tspan direction="ltr" unicode-bidi="embed" x="3.52759 ">n</tspan><tspan direction="ltr" unicode-bidi="embed" x="4.09127 ">a</tspan><tspan direction="ltr" unicode-bidi="embed" x="4.65496 ">r</tspan><tspan direction="ltr" unicode-bidi="embed" x="4.98226 ">a</tspan><tspan direction="ltr" unicode-bidi="embed" x="5.54595 ">y</tspan><tspan direction="ltr" unicode-bidi="embed" x="6.05508 ">a</tspan><tspan direction="ltr" unicode-bidi="embed" x="6.61877 ">n</tspan></text></g><g clip-path="url(#SVG_CP_1)" fill="#000000" font-family="'Arial'" font-size="1" font-weight="400" kerning="0"><text text-anchor="start" transform="matrix(7.91941 0 0 7.92011 288.26649 187.97224)"><tspan direction="ltr" unicode-bidi="embed" x="0 ">N</tspan><tspan direction="ltr" unicode-bidi="embed" x="0.72734 ">a</tspan><tspan direction="ltr" unicode-bidi="embed" x="1.29102 ">g</tspan><tspan direction="ltr" unicode-bidi="embed" x="1.83653 ">a</tspan><tspan direction="ltr" unicode-bidi="embed" x="2.40021 ">r</tspan><tspan direction="ltr" unicode-bidi="embed" x="2.7457 ">p</tspan><tspan direction="ltr" unicode-bidi="embed" x="3.30938 ">a</tspan><tspan direction="ltr" unicode-bidi="embed" x="3.87307 ">l</tspan><tspan direction="ltr" unicode-bidi="embed" x="4.09127 ">i</tspan><tspan direction="ltr" unicode-bidi="embed" x="4.30947 ">k</tspan><tspan direction="ltr" unicode-bidi="embed" x="4.81861 ">a</tspan></text></g><g clip-path="url(#SVG_CP_1)" fill="#000000" font-family="'Arial'" font-size="1" font-weight="400" kerning="0"><text text-anchor="start" transform="matrix(7.91941 0 0 7.92011 234.12653 308.78992)"><tspan direction="ltr" unicode-bidi="embed" x="0 ">S</tspan><tspan direction="ltr" unicode-bidi="embed" x="0.67279 ">u</tspan><tspan direction="ltr" unicode-bidi="embed" x="1.21829 ">r</tspan><tspan direction="ltr" unicode-bidi="embed" x="1.56378 ">y</tspan><tspan direction="ltr" unicode-bidi="embed" x="2.07291 ">a</tspan><tspan direction="ltr" unicode-bidi="embed" x="2.6366 ">b</tspan><tspan direction="ltr" unicode-bidi="embed" x="3.20028 ">i</tspan><tspan direction="ltr" unicode-bidi="embed" x="3.41848 ">n</tspan><tspan direction="ltr" unicode-bidi="embed" x="3.98217 ">a</tspan><tspan direction="ltr" unicode-bidi="embed" x="4.54586 ">y</tspan><tspan direction="ltr" unicode-bidi="embed" x="5.03681 ">a</tspan><tspan direction="ltr" unicode-bidi="embed" x="5.6005 ">k</tspan></text></g><g clip-path="url(#SVG_CP_1)" fill="#000000" font-family="'Arial'" font-size="1" font-weight="400" kerning="0"><text text-anchor="start" transform="matrix(7.91941 0 0 7.92011 237.00632 318.00605)"><tspan direction="ltr" unicode-bidi="embed" x="0 ">N</tspan><tspan direction="ltr" unicode-bidi="embed" x="0.72734 ">a</tspan><tspan direction="ltr" unicode-bidi="embed" x="1.29102 ">g</tspan><tspan direction="ltr" unicode-bidi="embed" x="1.83653 ">a</tspan><tspan direction="ltr" unicode-bidi="embed" x="2.40021 ">r</tspan><tspan direction="ltr" unicode-bidi="embed" x="2.7457 ">p</tspan><tspan direction="ltr" unicode-bidi="embed" x="3.30938 ">a</tspan><tspan direction="ltr" unicode-bidi="embed" x="3.87307 ">l</tspan><tspan direction="ltr" unicode-bidi="embed" x="4.09127 ">i</tspan><tspan direction="ltr" unicode-bidi="embed" x="4.30947 ">k</tspan><tspan direction="ltr" unicode-bidi="embed" x="4.81861 ">a</tspan></text></g><g clip-path="url(#SVG_CP_1)" fill="#000000" font-family="'Arial'" font-size="1" font-weight="400" kerning="0"><text text-anchor="start" transform="matrix(7.91941 0 0 7.92011 82.93781 216.77264)"><tspan direction="ltr" unicode-bidi="embed" x="0 ">M</tspan><tspan direction="ltr" unicode-bidi="embed" x="0.83644 ">a</tspan><tspan direction="ltr" unicode-bidi="embed" x="1.40012 ">d</tspan><tspan direction="ltr" unicode-bidi="embed" x="1.96381 ">h</tspan><tspan direction="ltr" unicode-bidi="embed" x="2.50931 ">y</tspan><tspan direction="ltr" unicode-bidi="embed" x="3.01845 ">a</tspan><tspan direction="ltr" unicode-bidi="embed" x="3.58214 ">p</tspan><tspan direction="ltr" unicode-bidi="embed" x="4.14582 ">u</tspan><tspan direction="ltr" unicode-bidi="embed" x="4.70951 ">r</tspan><tspan direction="ltr" unicode-bidi="embed" x="5.30956 ">T</tspan><tspan direction="ltr" unicode-bidi="embed" x="5.9278 ">h</tspan><tspan direction="ltr" unicode-bidi="embed" x="6.49148 ">i</tspan><tspan direction="ltr" unicode-bidi="embed" x="6.70968 ">m</tspan><tspan direction="ltr" unicode-bidi="embed" x="7.54612 ">i</tspan></text></g><g clip-path="url(#SVG_CP_1)" fill="#000000" font-family="'Arial'" font-size="1" font-weight="400" kerning="0"><text text-anchor="start" transform="matrix(7.91941 0 0 7.92011 92.4411 225.98877)"><tspan direction="ltr" unicode-bidi="embed" x="0 ">N</tspan><tspan direction="ltr" unicode-bidi="embed" x="0.72734 ">a</tspan><tspan direction="ltr" unicode-bidi="embed" x="1.29102 ">g</tspan><tspan direction="ltr" unicode-bidi="embed" x="1.83653 ">a</tspan><tspan direction="ltr" unicode-bidi="embed" x="2.40021 ">r</tspan><tspan direction="ltr" unicode-bidi="embed" x="2.7457 ">p</tspan><tspan direction="ltr" unicode-bidi="embed" x="3.30938 ">a</tspan><tspan direction="ltr" unicode-bidi="embed" x="3.87307 ">l</tspan><tspan direction="ltr" unicode-bidi="embed" x="4.09127 ">i</tspan><tspan direction="ltr" unicode-bidi="embed" x="4.30947 ">k</tspan><tspan direction="ltr" unicode-bidi="embed" x="4.81861 ">a</tspan></text></g><g clip-path="url(#SVG_CP_1)" fill="#000000" font-family="'Arial'" font-size="1" font-weight="400" kerning="0"><text text-anchor="start" transform="matrix(7.91941 0 0 7.92011 225.12721 244.85303)"><tspan direction="ltr" unicode-bidi="embed" x="0 ">B</tspan><tspan direction="ltr" unicode-bidi="embed" x="0.67279 ">h</tspan><tspan direction="ltr" unicode-bidi="embed" x="1.21829 ">a</tspan><tspan direction="ltr" unicode-bidi="embed" x="1.78198 ">k</tspan><tspan direction="ltr" unicode-bidi="embed" x="2.29111 ">t</tspan><tspan direction="ltr" unicode-bidi="embed" x="2.58205 ">a</tspan><tspan direction="ltr" unicode-bidi="embed" x="3.12755 ">p</tspan><tspan direction="ltr" unicode-bidi="embed" x="3.69124 ">u</tspan><tspan direction="ltr" unicode-bidi="embed" x="4.25492 ">r</tspan></text></g><g clip-path="url(#SVG_CP_1)" fill="#000000" font-family="'Arial'" font-size="1" font-weight="400" kerning="0"><text text-anchor="start" transform="matrix(7.91941 0 0 7.92011 222.03144 254.06916)"><tspan direction="ltr" unicode-bidi="embed" x="0 ">N</tspan><tspan direction="ltr" unicode-bidi="embed" x="0.72734 ">a</tspan><tspan direction="ltr" unicode-bidi="embed" x="1.29102 ">g</tspan><tspan direction="ltr" unicode-bidi="embed" x="1.83653 ">a</tspan><tspan direction="ltr" unicode-bidi="embed" x="2.40021 ">r</tspan><tspan direction="ltr" unicode-bidi="embed" x="2.7457 ">p</tspan><tspan direction="ltr" unicode-bidi="embed" x="3.30938 ">a</tspan><tspan direction="ltr" unicode-bidi="embed" x="3.87307 ">l</tspan><tspan direction="ltr" unicode-bidi="embed" x="4.09127 ">i</tspan><tspan direction="ltr" unicode-bidi="embed" x="4.30947 ">k</tspan><tspan direction="ltr" unicode-bidi="embed" x="4.81861 ">a</tspan></text></g></g></g><g id="Other"><clippath id="SVG_CP_2"><path d="M0,0L538.49764,0L538.49764,482.25827L0,482.25827z"></path></clippath><path clip-path="url(#SVG_CP_2)" d="M5.90356,241.34734L5.90356,5.61608L532.61627,5.61608L532.61627,476.93461L5.90356,476.93461L5.90356,241.34734" fill="none" stroke="#000000" stroke-linecap="square" stroke-miterlimit="10" stroke-width="0.43197"></path></g></g><g id="Other_2"><g clip-path="url(#SVG_CP_2)" fill="#000000" font-family="'ESRI North'" font-size="1" font-weight="400" kerning="0"><text text-anchor="start" transform="matrix(44.2047 0 0 44.20861 507.49014 48.96068)"><tspan direction="ltr" unicode-bidi="embed" x="0 "></tspan></text></g><path clip-path="url(#SVG_CP_2)" d="M14.97488,469.5905L14.97488,465.12644L21.16642,465.12644L21.16642,469.5905L14.97488,469.5905" fill="none" stroke="#000000" stroke-linecap="round" stroke-linejoin="round" stroke-miterlimit="10" stroke-width="1.00793"></path><path clip-path="url(#SVG_CP_2)" d="M21.16642,469.5905L21.16642,465.12644L27.35796,465.12644L27.35796,469.5905L21.16642,469.5905" fill="none" stroke="#000000" stroke-linecap="round" stroke-linejoin="round" stroke-miterlimit="10" stroke-width="1.00793"></path><path clip-path="url(#SVG_CP_2)" d="M27.35796,469.5905L27.35796,465.12644L33.5495,465.12644L33.5495,469.5905L27.35796,469.5905" fill="none" stroke="#000000" stroke-linecap="round" stroke-linejoin="round" stroke-miterlimit="10" stroke-width="1.00793"></path><path clip-path="url(#SVG_CP_2)" d="M33.5495,469.5905L33.5495,465.12644L39.88502,465.12644L39.88502,469.5905L33.5495,469.5905" fill="none" stroke="#000000" stroke-linecap="round" stroke-linejoin="round" stroke-miterlimit="10" stroke-width="1.00793"></path><path clip-path="url(#SVG_CP_2)" d="M39.88502,469.5905L39.88502,465.12644L64.65118,465.12644L64.65118,469.5905L39.88502,469.5905" fill="none" stroke="#000000" stroke-linecap="round" stroke-linejoin="round" stroke-miterlimit="10" stroke-width="1.00793"></path><path clip-path="url(#SVG_CP_2)" d="M14.97488,467.43047L21.16642,467.43047" fill="none" stroke="#000000" stroke-linecap="round" stroke-linejoin="round" stroke-miterlimit="10" stroke-width="1.00793"></path><path clip-path="url(#SVG_CP_2)" d="M27.35796,467.43047L33.5495,467.43047" fill="none" stroke="#000000" stroke-linecap="round" stroke-linejoin="round" stroke-miterlimit="10" stroke-width="1.00793"></path><path clip-path="url(#SVG_CP_2)" d="M39.88502,467.43047L64.65118,467.43047" fill="none" stroke="#000000" stroke-linecap="round" stroke-linejoin="round" stroke-miterlimit="10" stroke-width="1.00793"></path><g clip-path="url(#SVG_CP_2)" fill="#000000" font-family="'Arial'" font-size="1" font-weight="400" kerning="0"><text text-anchor="start" transform="matrix(6.7675 0 0 6.76809 13.10302 461.67039)"><tspan direction="ltr" unicode-bidi="embed" x="0 ">1</tspan></text></g><clippath id="SVG_CP_3"><path d="M0,482.25827L0,0L538.49764,0L538.49764,482.25827L0,482.25827z"></path></clippath><g clip-path="url(#SVG_CP_3)" fill="#000000" font-family="'Arial'" font-size="1" font-weight="400" kerning="0"><text text-anchor="start" transform="matrix(6.7675 0 0 6.76809 38.01316 461.67039)"><tspan direction="ltr" unicode-bidi="embed" x="0 ">0</tspan></text></g><g clip-path="url(#SVG_CP_3)" fill="#000000" font-family="'Arial'" font-size="1" font-weight="400" kerning="0"><text text-anchor="start" transform="matrix(6.7675 0 0 6.76809 62.77932 461.67039)"><tspan direction="ltr" unicode-bidi="embed" x="0 ">1</tspan></text></g><g clip-path="url(#SVG_CP_3)" fill="#000000" font-family="'Arial'" font-size="1" font-weight="400" kerning="0"><text text-anchor="start" transform="matrix(6.7675 0 0 6.76809 22.60631 461.67039)"><tspan direction="ltr" unicode-bidi="embed" x="0 ">0</tspan><tspan direction="ltr" unicode-bidi="embed" x="0.55324 ">.</tspan><tspan direction="ltr" unicode-bidi="embed" x="0.82986 ">5</tspan></text></g><g clip-path="url(#SVG_CP_3)" fill="#000000" font-family="'Arial'" font-size="1" font-weight="400" kerning="0"><text text-anchor="start" transform="matrix(6.7675 0 0 6.76809 66.81102 469.5905)"><tspan direction="ltr" unicode-bidi="embed" x="0 ">k</tspan><tspan direction="ltr" unicode-bidi="embed" x="0.48941 ">m</tspan></text></g></g></svg>